M48
;GenerationSoftware,Autodesk,EAGLE,9.5.2*%
;CreationDate,2020-01-16T19:29:57Z*%
FMAT,2
ICI,OFF
METRIC,TZ,000.000
T4C0.350
T3C0.600
T2C0.965
T1C1.100
%
G90
M71
T1
X2540Y5080
X5080Y5080
T2
X49530Y16510
X20320Y14605
X17780Y14605
X15240Y14605
X12700Y14605
X10160Y14605
X16510Y24130
X8890Y11430
X11430Y11430
X13970Y11430
X16510Y11430
X19050Y11430
X21590Y11430
X24130Y11430
X26670Y11430
X29210Y11430
X31750Y11430
X34290Y11430
X36830Y11430
X36830Y26670
X34290Y26670
X31750Y26670
X29210Y26670
X26670Y26670
X24130Y26670
X21590Y26670
X19050Y26670
X16510Y26670
X13970Y26670
X11430Y26670
X6350Y11430
X8890Y26670
X6350Y26670
X3810Y11430
X3810Y26670
X39370Y11430
X39370Y26670
X41910Y11430
X44450Y11430
X46990Y11430
X49530Y11430
X52070Y11430
X54610Y11430
X57150Y11430
X59690Y11430
X62230Y11430
X62230Y26670
X59690Y26670
X57150Y26670
X54610Y26670
X52070Y26670
X49530Y26670
X46990Y26670
X44450Y26670
X41910Y26670
X49530Y13970
X49530Y19050
X49530Y21590
X13970Y24130
X49530Y24130
X6350Y24130
X11430Y24130
T3
X60960Y38100
X15240Y36830
X60960Y35560
X60960Y33020
X60960Y30480
X35560Y30480
X38100Y30480
X40640Y30480
X43180Y30480
X30480Y3810
X27940Y3810
X25400Y3810
X22860Y3810
X20320Y3810
X17780Y3810
X15240Y3810
X12700Y3810
X58420Y3810
X55880Y3810
X53340Y3810
X50800Y3810
X48260Y3810
X45720Y3810
X43180Y3810
X40640Y3810
X5080Y36830
X7620Y36830
X10160Y36830
X12700Y36830
X45720Y30480
X17780Y36830
X20320Y36830
X22860Y36830
X33020Y36830
X35560Y36830
X38100Y36830
X40640Y36830
X43180Y36830
X45720Y36830
X48260Y36830
X50800Y36830
X22860Y30480
X20320Y30480
X17780Y30480
X15240Y30480
X12700Y30480
X10160Y30480
X48260Y30480
T4
X17780Y34290
X58420Y16510
X13970Y20320
X19050Y20320
X41910Y33020
X39370Y34290
X44450Y34290
X36830Y34290
X22860Y17780
M30