G04 EAGLE Gerber RS-274X export*
G75*
%MOMM*%
%FSLAX34Y34*%
%LPD*%
%INTop Copper*%
%IPPOS*%
%AMOC8*
5,1,8,0,0,1.08239X$1,22.5*%
G01*
%ADD10C,1.473200*%
%ADD11R,1.650000X1.650000*%
%ADD12C,1.650000*%
%ADD13C,1.108000*%
%ADD14C,0.304800*%
%ADD15C,0.756400*%


D10*
X88900Y114300D03*
X114300Y114300D03*
X139700Y114300D03*
X165100Y114300D03*
X190500Y114300D03*
X215900Y114300D03*
X241300Y114300D03*
X266700Y114300D03*
X292100Y114300D03*
X317500Y114300D03*
X342900Y114300D03*
X368300Y114300D03*
X368300Y266700D03*
X342900Y266700D03*
X317500Y266700D03*
X292100Y266700D03*
X266700Y266700D03*
X241300Y266700D03*
X215900Y266700D03*
X190500Y266700D03*
X165100Y266700D03*
X139700Y266700D03*
X114300Y266700D03*
X63500Y114300D03*
X88900Y266700D03*
X63500Y266700D03*
X38100Y114300D03*
X38100Y266700D03*
X393700Y114300D03*
X393700Y266700D03*
X419100Y114300D03*
X444500Y114300D03*
X469900Y114300D03*
X495300Y114300D03*
X520700Y114300D03*
X546100Y114300D03*
X571500Y114300D03*
X596900Y114300D03*
X622300Y114300D03*
X622300Y266700D03*
X596900Y266700D03*
X571500Y266700D03*
X546100Y266700D03*
X520700Y266700D03*
X495300Y266700D03*
X469900Y266700D03*
X444500Y266700D03*
X419100Y266700D03*
X495300Y139700D03*
X495300Y190500D03*
X495300Y215900D03*
X495300Y165100D03*
X495300Y241300D03*
X63500Y241300D03*
X114300Y241300D03*
X139700Y241300D03*
X165100Y241300D03*
X101600Y146050D03*
X127000Y146050D03*
X152400Y146050D03*
X177800Y146050D03*
X203200Y146050D03*
D11*
X25400Y50800D03*
D12*
X50800Y50800D03*
D13*
X304800Y43640D02*
X304800Y32560D01*
X279400Y32560D02*
X279400Y43640D01*
X254000Y43640D02*
X254000Y32560D01*
X228600Y32560D02*
X228600Y43640D01*
X203200Y43640D02*
X203200Y32560D01*
X177800Y32560D02*
X177800Y43640D01*
X152400Y43640D02*
X152400Y32560D01*
X127000Y32560D02*
X127000Y43640D01*
X584200Y43640D02*
X584200Y32560D01*
X558800Y32560D02*
X558800Y43640D01*
X533400Y43640D02*
X533400Y32560D01*
X508000Y32560D02*
X508000Y43640D01*
X482600Y43640D02*
X482600Y32560D01*
X457200Y32560D02*
X457200Y43640D01*
X431800Y43640D02*
X431800Y32560D01*
X406400Y32560D02*
X406400Y43640D01*
X50800Y362760D02*
X50800Y373840D01*
X76200Y373840D02*
X76200Y362760D01*
X101600Y362760D02*
X101600Y373840D01*
X127000Y373840D02*
X127000Y362760D01*
X152400Y362760D02*
X152400Y373840D01*
X177800Y373840D02*
X177800Y362760D01*
X203200Y362760D02*
X203200Y373840D01*
X228600Y373840D02*
X228600Y362760D01*
X330200Y362760D02*
X330200Y373840D01*
X355600Y373840D02*
X355600Y362760D01*
X381000Y362760D02*
X381000Y373840D01*
X406400Y373840D02*
X406400Y362760D01*
X431800Y362760D02*
X431800Y373840D01*
X457200Y373840D02*
X457200Y362760D01*
X482600Y362760D02*
X482600Y373840D01*
X508000Y373840D02*
X508000Y362760D01*
X228600Y310340D02*
X228600Y299260D01*
X203200Y299260D02*
X203200Y310340D01*
X177800Y310340D02*
X177800Y299260D01*
X152400Y299260D02*
X152400Y310340D01*
X127000Y310340D02*
X127000Y299260D01*
X101600Y299260D02*
X101600Y310340D01*
X482600Y310340D02*
X482600Y299260D01*
X457200Y299260D02*
X457200Y310340D01*
X431800Y310340D02*
X431800Y299260D01*
X406400Y299260D02*
X406400Y310340D01*
X381000Y310340D02*
X381000Y299260D01*
X355600Y299260D02*
X355600Y310340D01*
X604060Y304800D02*
X615140Y304800D01*
X615140Y330200D02*
X604060Y330200D01*
X604060Y355600D02*
X615140Y355600D01*
X615140Y381000D02*
X604060Y381000D01*
D14*
X88900Y12700D02*
X50800Y50800D01*
X88900Y12700D02*
X279400Y12700D01*
X304800Y38100D01*
X279400Y12700D02*
X571500Y12700D01*
X584200Y25400D01*
X584200Y38100D01*
X50800Y50800D02*
X12700Y88900D01*
X12700Y292100D01*
X50800Y330200D01*
X50800Y368300D01*
X50800Y378716D01*
X63500Y391416D01*
X317500Y391416D01*
X330200Y378716D01*
X330200Y368300D01*
X317500Y391416D02*
X599184Y391416D01*
X609600Y381000D01*
X101600Y317500D02*
X101600Y304800D01*
X101600Y317500D02*
X50800Y368300D01*
X177800Y63500D02*
X203200Y38100D01*
X177800Y63500D02*
X88900Y63500D01*
X63500Y88900D02*
X63500Y114300D01*
X63500Y88900D02*
X88900Y63500D01*
X190500Y63500D02*
X203200Y63500D01*
X190500Y63500D02*
X177800Y76200D01*
X101600Y76200D01*
X88900Y88900D01*
X88900Y114300D01*
X203200Y63500D02*
X228600Y38100D01*
X165100Y355600D02*
X152400Y368300D01*
X165100Y355600D02*
X165100Y292100D01*
X177800Y279400D01*
X177800Y190500D01*
X190500Y177800D01*
X228600Y177800D01*
D15*
X228600Y177800D03*
D14*
X139700Y355600D02*
X127000Y368300D01*
X139700Y355600D02*
X139700Y292100D01*
X152400Y279400D01*
X152400Y177800D01*
X165100Y165100D01*
X215900Y165100D01*
X266700Y114300D01*
X304800Y63500D02*
X457200Y63500D01*
X304800Y63500D02*
X292100Y76200D01*
X292100Y114300D01*
X457200Y63500D02*
X482600Y38100D01*
X482600Y63500D02*
X469900Y63500D01*
X457200Y76200D01*
X330200Y76200D01*
X317500Y88900D01*
X317500Y114300D01*
X482600Y63500D02*
X508000Y38100D01*
X431800Y330200D02*
X431800Y368300D01*
X431800Y330200D02*
X444500Y317500D01*
X444500Y292100D01*
X457200Y279400D01*
X457200Y190500D01*
X469900Y177800D01*
X571500Y177800D02*
X584200Y165100D01*
X571500Y177800D02*
X469900Y177800D01*
D15*
X584200Y165100D03*
D14*
X406400Y330200D02*
X406400Y368300D01*
X406400Y330200D02*
X393700Y317500D01*
X393700Y292100D01*
X406400Y279400D01*
X406400Y190500D02*
X444500Y152400D01*
X596900Y152400D01*
X622300Y127000D01*
X622300Y114300D01*
X406400Y190500D02*
X406400Y279400D01*
X584200Y304800D02*
X584200Y330200D01*
X584200Y304800D02*
X596900Y292100D01*
X596900Y266700D01*
X584200Y330200D02*
X609600Y355600D01*
X609600Y330200D02*
X622300Y330200D01*
X635000Y317500D01*
X635000Y279400D01*
X622300Y266700D01*
X127000Y304800D02*
X127000Y215900D01*
X139700Y203200D01*
D15*
X139700Y203200D03*
X190500Y203200D03*
D14*
X241300Y203200D01*
X304800Y139700D02*
X355600Y139700D01*
X361950Y133350D01*
X368300Y127000D01*
X368300Y114300D01*
X304800Y139700D02*
X241300Y203200D01*
X381000Y152400D02*
X381000Y304800D01*
X381000Y152400D02*
X368300Y139700D01*
X368300Y114300D01*
X203200Y279400D02*
X177800Y304800D01*
X203200Y279400D02*
X355600Y279400D01*
X368300Y266700D01*
X419100Y317500D02*
X431800Y304800D01*
X419100Y317500D02*
X419100Y330200D01*
D15*
X419100Y330200D03*
X393700Y342900D03*
D14*
X368300Y317500D01*
X368300Y266700D01*
X457200Y304800D02*
X457200Y330200D01*
X444500Y342900D01*
D15*
X444500Y342900D03*
X368300Y342900D03*
D14*
X177800Y342900D01*
D15*
X177800Y342900D03*
M02*
