G04 EAGLE Gerber RS-274X export*
G75*
%MOMM*%
%FSLAX34Y34*%
%LPD*%
%INSilkscreen Top*%
%IPPOS*%
%AMOC8*
5,1,8,0,0,1.08239X$1,22.5*%
G01*
%ADD10C,0.304800*%
%ADD11C,0.127000*%
%ADD12C,0.203200*%
%ADD13C,0.400000*%
%ADD14C,0.076200*%
%ADD15C,0.101600*%


D10*
X25400Y279400D02*
X635000Y279400D01*
X635000Y101600D02*
X25400Y101600D01*
X281940Y127000D02*
X403860Y127000D01*
X281940Y127000D02*
X281840Y127002D01*
X281741Y127008D01*
X281641Y127018D01*
X281543Y127031D01*
X281444Y127049D01*
X281347Y127070D01*
X281251Y127095D01*
X281155Y127124D01*
X281061Y127157D01*
X280968Y127193D01*
X280877Y127233D01*
X280787Y127277D01*
X280699Y127324D01*
X280613Y127374D01*
X280529Y127428D01*
X280447Y127485D01*
X280368Y127545D01*
X280290Y127609D01*
X280216Y127675D01*
X280144Y127744D01*
X280075Y127816D01*
X280009Y127890D01*
X279945Y127968D01*
X279885Y128047D01*
X279828Y128129D01*
X279774Y128213D01*
X279724Y128299D01*
X279677Y128387D01*
X279633Y128477D01*
X279593Y128568D01*
X279557Y128661D01*
X279524Y128755D01*
X279495Y128851D01*
X279470Y128947D01*
X279449Y129044D01*
X279431Y129143D01*
X279418Y129241D01*
X279408Y129341D01*
X279402Y129440D01*
X279400Y129540D01*
X279400Y251460D01*
X279402Y251560D01*
X279408Y251659D01*
X279418Y251759D01*
X279431Y251857D01*
X279449Y251956D01*
X279470Y252053D01*
X279495Y252149D01*
X279524Y252245D01*
X279557Y252339D01*
X279593Y252432D01*
X279633Y252523D01*
X279677Y252613D01*
X279724Y252701D01*
X279774Y252787D01*
X279828Y252871D01*
X279885Y252953D01*
X279945Y253032D01*
X280009Y253110D01*
X280075Y253184D01*
X280144Y253256D01*
X280216Y253325D01*
X280290Y253391D01*
X280368Y253455D01*
X280447Y253515D01*
X280529Y253572D01*
X280613Y253626D01*
X280699Y253676D01*
X280787Y253723D01*
X280877Y253767D01*
X280968Y253807D01*
X281061Y253843D01*
X281155Y253876D01*
X281251Y253905D01*
X281347Y253930D01*
X281444Y253951D01*
X281543Y253969D01*
X281641Y253982D01*
X281741Y253992D01*
X281840Y253998D01*
X281940Y254000D01*
X403860Y254000D01*
X403960Y253998D01*
X404059Y253992D01*
X404159Y253982D01*
X404257Y253969D01*
X404356Y253951D01*
X404453Y253930D01*
X404549Y253905D01*
X404645Y253876D01*
X404739Y253843D01*
X404832Y253807D01*
X404923Y253767D01*
X405013Y253723D01*
X405101Y253676D01*
X405187Y253626D01*
X405271Y253572D01*
X405353Y253515D01*
X405432Y253455D01*
X405510Y253391D01*
X405584Y253325D01*
X405656Y253256D01*
X405725Y253184D01*
X405791Y253110D01*
X405855Y253032D01*
X405915Y252953D01*
X405972Y252871D01*
X406026Y252787D01*
X406076Y252701D01*
X406123Y252613D01*
X406167Y252523D01*
X406207Y252432D01*
X406243Y252339D01*
X406276Y252245D01*
X406305Y252149D01*
X406330Y252053D01*
X406351Y251956D01*
X406369Y251857D01*
X406382Y251759D01*
X406392Y251659D01*
X406398Y251560D01*
X406400Y251460D01*
X406400Y129540D01*
X406398Y129440D01*
X406392Y129341D01*
X406382Y129241D01*
X406369Y129143D01*
X406351Y129044D01*
X406330Y128947D01*
X406305Y128851D01*
X406276Y128755D01*
X406243Y128661D01*
X406207Y128568D01*
X406167Y128477D01*
X406123Y128387D01*
X406076Y128299D01*
X406026Y128213D01*
X405972Y128129D01*
X405915Y128047D01*
X405855Y127968D01*
X405791Y127890D01*
X405725Y127816D01*
X405656Y127744D01*
X405584Y127675D01*
X405510Y127609D01*
X405432Y127545D01*
X405353Y127485D01*
X405271Y127428D01*
X405187Y127374D01*
X405101Y127324D01*
X405013Y127277D01*
X404923Y127233D01*
X404832Y127193D01*
X404739Y127157D01*
X404645Y127124D01*
X404549Y127095D01*
X404453Y127070D01*
X404356Y127049D01*
X404257Y127031D01*
X404159Y127018D01*
X404059Y127008D01*
X403960Y127002D01*
X403860Y127000D01*
X635000Y101600D02*
X635000Y279400D01*
X63500Y228600D02*
X44450Y228600D01*
X31750Y228600D01*
X25400Y228600D01*
X12700Y228600D01*
X12700Y152400D01*
X25400Y152400D01*
X31750Y152400D01*
X44450Y152400D01*
X63500Y152400D01*
X63500Y158750D01*
X63500Y168275D01*
X63500Y171450D01*
X63500Y177800D01*
X63500Y184150D01*
X63500Y190500D01*
X63500Y196850D01*
X63500Y203200D01*
X63500Y209550D01*
X63500Y212725D01*
X63500Y222250D01*
X63500Y228600D01*
X25400Y228600D02*
X25400Y279400D01*
X25400Y152400D02*
X25400Y101600D01*
D11*
X508000Y241300D02*
X508000Y251460D01*
X508002Y251560D01*
X508008Y251659D01*
X508018Y251759D01*
X508031Y251857D01*
X508049Y251956D01*
X508070Y252053D01*
X508095Y252149D01*
X508124Y252245D01*
X508157Y252339D01*
X508193Y252432D01*
X508233Y252523D01*
X508277Y252613D01*
X508324Y252701D01*
X508374Y252787D01*
X508428Y252871D01*
X508485Y252953D01*
X508545Y253032D01*
X508609Y253110D01*
X508675Y253184D01*
X508744Y253256D01*
X508816Y253325D01*
X508890Y253391D01*
X508968Y253455D01*
X509047Y253515D01*
X509129Y253572D01*
X509213Y253626D01*
X509299Y253676D01*
X509387Y253723D01*
X509477Y253767D01*
X509568Y253807D01*
X509661Y253843D01*
X509755Y253876D01*
X509851Y253905D01*
X509947Y253930D01*
X510044Y253951D01*
X510143Y253969D01*
X510241Y253982D01*
X510341Y253992D01*
X510440Y253998D01*
X510540Y254000D01*
X533400Y254000D01*
D10*
X552450Y254000D01*
D11*
X571500Y254000D01*
D10*
X593725Y254000D01*
X626110Y254000D01*
X626210Y253998D01*
X626309Y253992D01*
X626409Y253982D01*
X626507Y253969D01*
X626606Y253951D01*
X626703Y253930D01*
X626799Y253905D01*
X626895Y253876D01*
X626989Y253843D01*
X627082Y253807D01*
X627173Y253767D01*
X627263Y253723D01*
X627351Y253676D01*
X627437Y253626D01*
X627521Y253572D01*
X627603Y253515D01*
X627682Y253455D01*
X627760Y253391D01*
X627834Y253325D01*
X627906Y253256D01*
X627975Y253184D01*
X628041Y253110D01*
X628105Y253032D01*
X628165Y252953D01*
X628222Y252871D01*
X628276Y252787D01*
X628326Y252701D01*
X628373Y252613D01*
X628417Y252523D01*
X628457Y252432D01*
X628493Y252339D01*
X628526Y252245D01*
X628555Y252149D01*
X628580Y252053D01*
X628601Y251956D01*
X628619Y251857D01*
X628632Y251759D01*
X628642Y251659D01*
X628648Y251560D01*
X628650Y251460D01*
X628650Y244475D01*
X628648Y244364D01*
X628642Y244254D01*
X628633Y244143D01*
X628619Y244033D01*
X628602Y243924D01*
X628581Y243815D01*
X628556Y243707D01*
X628527Y243600D01*
X628495Y243494D01*
X628459Y243389D01*
X628419Y243286D01*
X628376Y243184D01*
X628329Y243083D01*
X628278Y242984D01*
X628225Y242887D01*
X628168Y242793D01*
X628107Y242700D01*
X628044Y242609D01*
X627977Y242520D01*
X627907Y242434D01*
X627834Y242351D01*
X627759Y242269D01*
X627681Y242191D01*
X627599Y242116D01*
X627516Y242043D01*
X627430Y241973D01*
X627341Y241906D01*
X627250Y241843D01*
X627157Y241782D01*
X627063Y241725D01*
X626966Y241672D01*
X626867Y241621D01*
X626766Y241574D01*
X626664Y241531D01*
X626561Y241491D01*
X626456Y241455D01*
X626350Y241423D01*
X626243Y241394D01*
X626135Y241369D01*
X626026Y241348D01*
X625917Y241331D01*
X625807Y241317D01*
X625696Y241308D01*
X625586Y241302D01*
X625475Y241300D01*
X615950Y241300D01*
X615792Y241298D01*
X615633Y241292D01*
X615475Y241282D01*
X615318Y241268D01*
X615160Y241251D01*
X615004Y241229D01*
X614847Y241204D01*
X614692Y241174D01*
X614537Y241141D01*
X614383Y241104D01*
X614230Y241063D01*
X614078Y241018D01*
X613928Y240969D01*
X613778Y240917D01*
X613630Y240861D01*
X613483Y240801D01*
X613338Y240738D01*
X613195Y240671D01*
X613053Y240601D01*
X612913Y240527D01*
X612775Y240449D01*
X612639Y240368D01*
X612505Y240284D01*
X612373Y240197D01*
X612243Y240106D01*
X612116Y240012D01*
X611991Y239915D01*
X611868Y239814D01*
X611748Y239711D01*
X611631Y239605D01*
X611516Y239496D01*
X611404Y239384D01*
X611295Y239269D01*
X611189Y239152D01*
X611086Y239032D01*
X610985Y238909D01*
X610888Y238784D01*
X610794Y238657D01*
X610703Y238527D01*
X610616Y238395D01*
X610532Y238261D01*
X610451Y238125D01*
X610373Y237987D01*
X610299Y237847D01*
X610229Y237705D01*
X610162Y237562D01*
X610099Y237417D01*
X610039Y237270D01*
X609983Y237122D01*
X609931Y236972D01*
X609882Y236822D01*
X609837Y236670D01*
X609796Y236517D01*
X609759Y236363D01*
X609726Y236208D01*
X609696Y236053D01*
X609671Y235896D01*
X609649Y235740D01*
X609632Y235582D01*
X609618Y235425D01*
X609608Y235267D01*
X609602Y235108D01*
X609600Y234950D01*
X609600Y222250D01*
X609600Y215900D01*
X609600Y209550D01*
X609600Y203200D01*
X609600Y196850D01*
X609600Y190500D01*
X609600Y184150D01*
X609600Y177800D01*
X609600Y171450D01*
X609600Y165100D01*
X609600Y158750D01*
X609600Y152400D01*
X609600Y146050D01*
X609600Y139700D01*
X609602Y139542D01*
X609608Y139383D01*
X609618Y139225D01*
X609632Y139068D01*
X609649Y138910D01*
X609671Y138754D01*
X609696Y138597D01*
X609726Y138442D01*
X609759Y138287D01*
X609796Y138133D01*
X609837Y137980D01*
X609882Y137828D01*
X609931Y137678D01*
X609983Y137528D01*
X610039Y137380D01*
X610099Y137233D01*
X610162Y137088D01*
X610229Y136945D01*
X610299Y136803D01*
X610373Y136663D01*
X610451Y136525D01*
X610532Y136389D01*
X610616Y136255D01*
X610703Y136123D01*
X610794Y135993D01*
X610888Y135866D01*
X610985Y135741D01*
X611086Y135618D01*
X611189Y135498D01*
X611295Y135381D01*
X611404Y135266D01*
X611516Y135154D01*
X611631Y135045D01*
X611748Y134939D01*
X611868Y134836D01*
X611991Y134735D01*
X612116Y134638D01*
X612243Y134544D01*
X612373Y134453D01*
X612505Y134366D01*
X612639Y134282D01*
X612775Y134201D01*
X612913Y134123D01*
X613053Y134049D01*
X613195Y133979D01*
X613338Y133912D01*
X613483Y133849D01*
X613630Y133789D01*
X613778Y133733D01*
X613928Y133681D01*
X614078Y133632D01*
X614230Y133587D01*
X614383Y133546D01*
X614537Y133509D01*
X614692Y133476D01*
X614847Y133446D01*
X615004Y133421D01*
X615160Y133399D01*
X615318Y133382D01*
X615475Y133368D01*
X615633Y133358D01*
X615792Y133352D01*
X615950Y133350D01*
X625475Y133350D01*
X625586Y133348D01*
X625696Y133342D01*
X625807Y133333D01*
X625917Y133319D01*
X626026Y133302D01*
X626135Y133281D01*
X626243Y133256D01*
X626350Y133227D01*
X626456Y133195D01*
X626561Y133159D01*
X626664Y133119D01*
X626766Y133076D01*
X626867Y133029D01*
X626966Y132978D01*
X627063Y132925D01*
X627157Y132868D01*
X627250Y132807D01*
X627341Y132744D01*
X627430Y132677D01*
X627516Y132607D01*
X627599Y132534D01*
X627681Y132459D01*
X627759Y132381D01*
X627834Y132299D01*
X627907Y132216D01*
X627977Y132130D01*
X628044Y132041D01*
X628107Y131950D01*
X628168Y131857D01*
X628225Y131763D01*
X628278Y131666D01*
X628329Y131567D01*
X628376Y131466D01*
X628419Y131364D01*
X628459Y131261D01*
X628495Y131156D01*
X628527Y131050D01*
X628556Y130943D01*
X628581Y130835D01*
X628602Y130726D01*
X628619Y130617D01*
X628633Y130507D01*
X628642Y130396D01*
X628648Y130286D01*
X628650Y130175D01*
X628650Y129540D01*
X628648Y129440D01*
X628642Y129341D01*
X628632Y129241D01*
X628619Y129143D01*
X628601Y129044D01*
X628580Y128947D01*
X628555Y128851D01*
X628526Y128755D01*
X628493Y128661D01*
X628457Y128568D01*
X628417Y128477D01*
X628373Y128387D01*
X628326Y128299D01*
X628276Y128213D01*
X628222Y128129D01*
X628165Y128047D01*
X628105Y127968D01*
X628041Y127890D01*
X627975Y127816D01*
X627906Y127744D01*
X627834Y127675D01*
X627760Y127609D01*
X627682Y127545D01*
X627603Y127485D01*
X627521Y127428D01*
X627437Y127374D01*
X627351Y127324D01*
X627263Y127277D01*
X627173Y127233D01*
X627082Y127193D01*
X626989Y127157D01*
X626895Y127124D01*
X626799Y127095D01*
X626703Y127070D01*
X626606Y127049D01*
X626507Y127031D01*
X626409Y127018D01*
X626309Y127008D01*
X626210Y127002D01*
X626110Y127000D01*
X510540Y127000D01*
X510440Y127002D01*
X510341Y127008D01*
X510241Y127018D01*
X510143Y127031D01*
X510044Y127049D01*
X509947Y127070D01*
X509851Y127095D01*
X509755Y127124D01*
X509661Y127157D01*
X509568Y127193D01*
X509477Y127233D01*
X509387Y127277D01*
X509299Y127324D01*
X509213Y127374D01*
X509129Y127428D01*
X509047Y127485D01*
X508968Y127545D01*
X508890Y127609D01*
X508816Y127675D01*
X508744Y127744D01*
X508675Y127816D01*
X508609Y127890D01*
X508545Y127968D01*
X508485Y128047D01*
X508428Y128129D01*
X508374Y128213D01*
X508324Y128299D01*
X508277Y128387D01*
X508233Y128477D01*
X508193Y128568D01*
X508157Y128661D01*
X508124Y128755D01*
X508095Y128851D01*
X508070Y128947D01*
X508049Y129044D01*
X508031Y129143D01*
X508018Y129241D01*
X508008Y129341D01*
X508002Y129440D01*
X508000Y129540D01*
X508000Y241300D01*
D11*
X609600Y222250D02*
X626110Y222250D01*
X626210Y222248D01*
X626309Y222242D01*
X626409Y222232D01*
X626507Y222219D01*
X626606Y222201D01*
X626703Y222180D01*
X626799Y222155D01*
X626895Y222126D01*
X626989Y222093D01*
X627082Y222057D01*
X627173Y222017D01*
X627263Y221973D01*
X627351Y221926D01*
X627437Y221876D01*
X627521Y221822D01*
X627603Y221765D01*
X627682Y221705D01*
X627760Y221641D01*
X627834Y221575D01*
X627906Y221506D01*
X627975Y221434D01*
X628041Y221360D01*
X628105Y221282D01*
X628165Y221203D01*
X628222Y221121D01*
X628276Y221037D01*
X628326Y220951D01*
X628373Y220863D01*
X628417Y220773D01*
X628457Y220682D01*
X628493Y220589D01*
X628526Y220495D01*
X628555Y220399D01*
X628580Y220303D01*
X628601Y220206D01*
X628619Y220107D01*
X628632Y220009D01*
X628642Y219909D01*
X628648Y219810D01*
X628650Y219710D01*
X628650Y218440D01*
X628648Y218340D01*
X628642Y218241D01*
X628632Y218141D01*
X628619Y218043D01*
X628601Y217944D01*
X628580Y217847D01*
X628555Y217751D01*
X628526Y217655D01*
X628493Y217561D01*
X628457Y217468D01*
X628417Y217377D01*
X628373Y217287D01*
X628326Y217199D01*
X628276Y217113D01*
X628222Y217029D01*
X628165Y216947D01*
X628105Y216868D01*
X628041Y216790D01*
X627975Y216716D01*
X627906Y216644D01*
X627834Y216575D01*
X627760Y216509D01*
X627682Y216445D01*
X627603Y216385D01*
X627521Y216328D01*
X627437Y216274D01*
X627351Y216224D01*
X627263Y216177D01*
X627173Y216133D01*
X627082Y216093D01*
X626989Y216057D01*
X626895Y216024D01*
X626799Y215995D01*
X626703Y215970D01*
X626606Y215949D01*
X626507Y215931D01*
X626409Y215918D01*
X626309Y215908D01*
X626210Y215902D01*
X626110Y215900D01*
X609600Y215900D01*
X609600Y209550D02*
X626110Y209550D01*
X626210Y209548D01*
X626309Y209542D01*
X626409Y209532D01*
X626507Y209519D01*
X626606Y209501D01*
X626703Y209480D01*
X626799Y209455D01*
X626895Y209426D01*
X626989Y209393D01*
X627082Y209357D01*
X627173Y209317D01*
X627263Y209273D01*
X627351Y209226D01*
X627437Y209176D01*
X627521Y209122D01*
X627603Y209065D01*
X627682Y209005D01*
X627760Y208941D01*
X627834Y208875D01*
X627906Y208806D01*
X627975Y208734D01*
X628041Y208660D01*
X628105Y208582D01*
X628165Y208503D01*
X628222Y208421D01*
X628276Y208337D01*
X628326Y208251D01*
X628373Y208163D01*
X628417Y208073D01*
X628457Y207982D01*
X628493Y207889D01*
X628526Y207795D01*
X628555Y207699D01*
X628580Y207603D01*
X628601Y207506D01*
X628619Y207407D01*
X628632Y207309D01*
X628642Y207209D01*
X628648Y207110D01*
X628650Y207010D01*
X628650Y205740D01*
X628648Y205640D01*
X628642Y205541D01*
X628632Y205441D01*
X628619Y205343D01*
X628601Y205244D01*
X628580Y205147D01*
X628555Y205051D01*
X628526Y204955D01*
X628493Y204861D01*
X628457Y204768D01*
X628417Y204677D01*
X628373Y204587D01*
X628326Y204499D01*
X628276Y204413D01*
X628222Y204329D01*
X628165Y204247D01*
X628105Y204168D01*
X628041Y204090D01*
X627975Y204016D01*
X627906Y203944D01*
X627834Y203875D01*
X627760Y203809D01*
X627682Y203745D01*
X627603Y203685D01*
X627521Y203628D01*
X627437Y203574D01*
X627351Y203524D01*
X627263Y203477D01*
X627173Y203433D01*
X627082Y203393D01*
X626989Y203357D01*
X626895Y203324D01*
X626799Y203295D01*
X626703Y203270D01*
X626606Y203249D01*
X626507Y203231D01*
X626409Y203218D01*
X626309Y203208D01*
X626210Y203202D01*
X626110Y203200D01*
X609600Y203200D01*
X609600Y196850D02*
X626110Y196850D01*
X626210Y196848D01*
X626309Y196842D01*
X626409Y196832D01*
X626507Y196819D01*
X626606Y196801D01*
X626703Y196780D01*
X626799Y196755D01*
X626895Y196726D01*
X626989Y196693D01*
X627082Y196657D01*
X627173Y196617D01*
X627263Y196573D01*
X627351Y196526D01*
X627437Y196476D01*
X627521Y196422D01*
X627603Y196365D01*
X627682Y196305D01*
X627760Y196241D01*
X627834Y196175D01*
X627906Y196106D01*
X627975Y196034D01*
X628041Y195960D01*
X628105Y195882D01*
X628165Y195803D01*
X628222Y195721D01*
X628276Y195637D01*
X628326Y195551D01*
X628373Y195463D01*
X628417Y195373D01*
X628457Y195282D01*
X628493Y195189D01*
X628526Y195095D01*
X628555Y194999D01*
X628580Y194903D01*
X628601Y194806D01*
X628619Y194707D01*
X628632Y194609D01*
X628642Y194509D01*
X628648Y194410D01*
X628650Y194310D01*
X628650Y193040D01*
X628648Y192940D01*
X628642Y192841D01*
X628632Y192741D01*
X628619Y192643D01*
X628601Y192544D01*
X628580Y192447D01*
X628555Y192351D01*
X628526Y192255D01*
X628493Y192161D01*
X628457Y192068D01*
X628417Y191977D01*
X628373Y191887D01*
X628326Y191799D01*
X628276Y191713D01*
X628222Y191629D01*
X628165Y191547D01*
X628105Y191468D01*
X628041Y191390D01*
X627975Y191316D01*
X627906Y191244D01*
X627834Y191175D01*
X627760Y191109D01*
X627682Y191045D01*
X627603Y190985D01*
X627521Y190928D01*
X627437Y190874D01*
X627351Y190824D01*
X627263Y190777D01*
X627173Y190733D01*
X627082Y190693D01*
X626989Y190657D01*
X626895Y190624D01*
X626799Y190595D01*
X626703Y190570D01*
X626606Y190549D01*
X626507Y190531D01*
X626409Y190518D01*
X626309Y190508D01*
X626210Y190502D01*
X626110Y190500D01*
X609600Y190500D01*
X609600Y184150D02*
X626110Y184150D01*
X626210Y184148D01*
X626309Y184142D01*
X626409Y184132D01*
X626507Y184119D01*
X626606Y184101D01*
X626703Y184080D01*
X626799Y184055D01*
X626895Y184026D01*
X626989Y183993D01*
X627082Y183957D01*
X627173Y183917D01*
X627263Y183873D01*
X627351Y183826D01*
X627437Y183776D01*
X627521Y183722D01*
X627603Y183665D01*
X627682Y183605D01*
X627760Y183541D01*
X627834Y183475D01*
X627906Y183406D01*
X627975Y183334D01*
X628041Y183260D01*
X628105Y183182D01*
X628165Y183103D01*
X628222Y183021D01*
X628276Y182937D01*
X628326Y182851D01*
X628373Y182763D01*
X628417Y182673D01*
X628457Y182582D01*
X628493Y182489D01*
X628526Y182395D01*
X628555Y182299D01*
X628580Y182203D01*
X628601Y182106D01*
X628619Y182007D01*
X628632Y181909D01*
X628642Y181809D01*
X628648Y181710D01*
X628650Y181610D01*
X628650Y180340D01*
X628648Y180240D01*
X628642Y180141D01*
X628632Y180041D01*
X628619Y179943D01*
X628601Y179844D01*
X628580Y179747D01*
X628555Y179651D01*
X628526Y179555D01*
X628493Y179461D01*
X628457Y179368D01*
X628417Y179277D01*
X628373Y179187D01*
X628326Y179099D01*
X628276Y179013D01*
X628222Y178929D01*
X628165Y178847D01*
X628105Y178768D01*
X628041Y178690D01*
X627975Y178616D01*
X627906Y178544D01*
X627834Y178475D01*
X627760Y178409D01*
X627682Y178345D01*
X627603Y178285D01*
X627521Y178228D01*
X627437Y178174D01*
X627351Y178124D01*
X627263Y178077D01*
X627173Y178033D01*
X627082Y177993D01*
X626989Y177957D01*
X626895Y177924D01*
X626799Y177895D01*
X626703Y177870D01*
X626606Y177849D01*
X626507Y177831D01*
X626409Y177818D01*
X626309Y177808D01*
X626210Y177802D01*
X626110Y177800D01*
X609600Y177800D01*
X609600Y171450D02*
X626110Y171450D01*
X626210Y171448D01*
X626309Y171442D01*
X626409Y171432D01*
X626507Y171419D01*
X626606Y171401D01*
X626703Y171380D01*
X626799Y171355D01*
X626895Y171326D01*
X626989Y171293D01*
X627082Y171257D01*
X627173Y171217D01*
X627263Y171173D01*
X627351Y171126D01*
X627437Y171076D01*
X627521Y171022D01*
X627603Y170965D01*
X627682Y170905D01*
X627760Y170841D01*
X627834Y170775D01*
X627906Y170706D01*
X627975Y170634D01*
X628041Y170560D01*
X628105Y170482D01*
X628165Y170403D01*
X628222Y170321D01*
X628276Y170237D01*
X628326Y170151D01*
X628373Y170063D01*
X628417Y169973D01*
X628457Y169882D01*
X628493Y169789D01*
X628526Y169695D01*
X628555Y169599D01*
X628580Y169503D01*
X628601Y169406D01*
X628619Y169307D01*
X628632Y169209D01*
X628642Y169109D01*
X628648Y169010D01*
X628650Y168910D01*
X628650Y167640D01*
X628648Y167540D01*
X628642Y167441D01*
X628632Y167341D01*
X628619Y167243D01*
X628601Y167144D01*
X628580Y167047D01*
X628555Y166951D01*
X628526Y166855D01*
X628493Y166761D01*
X628457Y166668D01*
X628417Y166577D01*
X628373Y166487D01*
X628326Y166399D01*
X628276Y166313D01*
X628222Y166229D01*
X628165Y166147D01*
X628105Y166068D01*
X628041Y165990D01*
X627975Y165916D01*
X627906Y165844D01*
X627834Y165775D01*
X627760Y165709D01*
X627682Y165645D01*
X627603Y165585D01*
X627521Y165528D01*
X627437Y165474D01*
X627351Y165424D01*
X627263Y165377D01*
X627173Y165333D01*
X627082Y165293D01*
X626989Y165257D01*
X626895Y165224D01*
X626799Y165195D01*
X626703Y165170D01*
X626606Y165149D01*
X626507Y165131D01*
X626409Y165118D01*
X626309Y165108D01*
X626210Y165102D01*
X626110Y165100D01*
X609600Y165100D01*
X609600Y158750D02*
X626110Y158750D01*
X626210Y158748D01*
X626309Y158742D01*
X626409Y158732D01*
X626507Y158719D01*
X626606Y158701D01*
X626703Y158680D01*
X626799Y158655D01*
X626895Y158626D01*
X626989Y158593D01*
X627082Y158557D01*
X627173Y158517D01*
X627263Y158473D01*
X627351Y158426D01*
X627437Y158376D01*
X627521Y158322D01*
X627603Y158265D01*
X627682Y158205D01*
X627760Y158141D01*
X627834Y158075D01*
X627906Y158006D01*
X627975Y157934D01*
X628041Y157860D01*
X628105Y157782D01*
X628165Y157703D01*
X628222Y157621D01*
X628276Y157537D01*
X628326Y157451D01*
X628373Y157363D01*
X628417Y157273D01*
X628457Y157182D01*
X628493Y157089D01*
X628526Y156995D01*
X628555Y156899D01*
X628580Y156803D01*
X628601Y156706D01*
X628619Y156607D01*
X628632Y156509D01*
X628642Y156409D01*
X628648Y156310D01*
X628650Y156210D01*
X628650Y154940D01*
X628648Y154840D01*
X628642Y154741D01*
X628632Y154641D01*
X628619Y154543D01*
X628601Y154444D01*
X628580Y154347D01*
X628555Y154251D01*
X628526Y154155D01*
X628493Y154061D01*
X628457Y153968D01*
X628417Y153877D01*
X628373Y153787D01*
X628326Y153699D01*
X628276Y153613D01*
X628222Y153529D01*
X628165Y153447D01*
X628105Y153368D01*
X628041Y153290D01*
X627975Y153216D01*
X627906Y153144D01*
X627834Y153075D01*
X627760Y153009D01*
X627682Y152945D01*
X627603Y152885D01*
X627521Y152828D01*
X627437Y152774D01*
X627351Y152724D01*
X627263Y152677D01*
X627173Y152633D01*
X627082Y152593D01*
X626989Y152557D01*
X626895Y152524D01*
X626799Y152495D01*
X626703Y152470D01*
X626606Y152449D01*
X626507Y152431D01*
X626409Y152418D01*
X626309Y152408D01*
X626210Y152402D01*
X626110Y152400D01*
X609600Y152400D01*
X609600Y146050D02*
X626110Y146050D01*
X626210Y146048D01*
X626309Y146042D01*
X626409Y146032D01*
X626507Y146019D01*
X626606Y146001D01*
X626703Y145980D01*
X626799Y145955D01*
X626895Y145926D01*
X626989Y145893D01*
X627082Y145857D01*
X627173Y145817D01*
X627263Y145773D01*
X627351Y145726D01*
X627437Y145676D01*
X627521Y145622D01*
X627603Y145565D01*
X627682Y145505D01*
X627760Y145441D01*
X627834Y145375D01*
X627906Y145306D01*
X627975Y145234D01*
X628041Y145160D01*
X628105Y145082D01*
X628165Y145003D01*
X628222Y144921D01*
X628276Y144837D01*
X628326Y144751D01*
X628373Y144663D01*
X628417Y144573D01*
X628457Y144482D01*
X628493Y144389D01*
X628526Y144295D01*
X628555Y144199D01*
X628580Y144103D01*
X628601Y144006D01*
X628619Y143907D01*
X628632Y143809D01*
X628642Y143709D01*
X628648Y143610D01*
X628650Y143510D01*
X628650Y142240D01*
X628648Y142140D01*
X628642Y142041D01*
X628632Y141941D01*
X628619Y141843D01*
X628601Y141744D01*
X628580Y141647D01*
X628555Y141551D01*
X628526Y141455D01*
X628493Y141361D01*
X628457Y141268D01*
X628417Y141177D01*
X628373Y141087D01*
X628326Y140999D01*
X628276Y140913D01*
X628222Y140829D01*
X628165Y140747D01*
X628105Y140668D01*
X628041Y140590D01*
X627975Y140516D01*
X627906Y140444D01*
X627834Y140375D01*
X627760Y140309D01*
X627682Y140245D01*
X627603Y140185D01*
X627521Y140128D01*
X627437Y140074D01*
X627351Y140024D01*
X627263Y139977D01*
X627173Y139933D01*
X627082Y139893D01*
X626989Y139857D01*
X626895Y139824D01*
X626799Y139795D01*
X626703Y139770D01*
X626606Y139749D01*
X626507Y139731D01*
X626409Y139718D01*
X626309Y139708D01*
X626210Y139702D01*
X626110Y139700D01*
X609600Y139700D01*
X480060Y165100D02*
X447040Y165100D01*
X480060Y165100D02*
X480160Y165102D01*
X480259Y165108D01*
X480359Y165118D01*
X480457Y165131D01*
X480556Y165149D01*
X480653Y165170D01*
X480749Y165195D01*
X480845Y165224D01*
X480939Y165257D01*
X481032Y165293D01*
X481123Y165333D01*
X481213Y165377D01*
X481301Y165424D01*
X481387Y165474D01*
X481471Y165528D01*
X481553Y165585D01*
X481632Y165645D01*
X481710Y165709D01*
X481784Y165775D01*
X481856Y165844D01*
X481925Y165916D01*
X481991Y165990D01*
X482055Y166068D01*
X482115Y166147D01*
X482172Y166229D01*
X482226Y166313D01*
X482276Y166399D01*
X482323Y166487D01*
X482367Y166577D01*
X482407Y166668D01*
X482443Y166761D01*
X482476Y166855D01*
X482505Y166951D01*
X482530Y167047D01*
X482551Y167144D01*
X482569Y167243D01*
X482582Y167341D01*
X482592Y167441D01*
X482598Y167540D01*
X482600Y167640D01*
X482600Y213360D01*
X482598Y213460D01*
X482592Y213559D01*
X482582Y213659D01*
X482569Y213757D01*
X482551Y213856D01*
X482530Y213953D01*
X482505Y214049D01*
X482476Y214145D01*
X482443Y214239D01*
X482407Y214332D01*
X482367Y214423D01*
X482323Y214513D01*
X482276Y214601D01*
X482226Y214687D01*
X482172Y214771D01*
X482115Y214853D01*
X482055Y214932D01*
X481991Y215010D01*
X481925Y215084D01*
X481856Y215156D01*
X481784Y215225D01*
X481710Y215291D01*
X481632Y215355D01*
X481553Y215415D01*
X481471Y215472D01*
X481387Y215526D01*
X481301Y215576D01*
X481213Y215623D01*
X481123Y215667D01*
X481032Y215707D01*
X480939Y215743D01*
X480845Y215776D01*
X480749Y215805D01*
X480653Y215830D01*
X480556Y215851D01*
X480457Y215869D01*
X480359Y215882D01*
X480259Y215892D01*
X480160Y215898D01*
X480060Y215900D01*
X447040Y215900D01*
X446940Y215898D01*
X446841Y215892D01*
X446741Y215882D01*
X446643Y215869D01*
X446544Y215851D01*
X446447Y215830D01*
X446351Y215805D01*
X446255Y215776D01*
X446161Y215743D01*
X446068Y215707D01*
X445977Y215667D01*
X445887Y215623D01*
X445799Y215576D01*
X445713Y215526D01*
X445629Y215472D01*
X445547Y215415D01*
X445468Y215355D01*
X445390Y215291D01*
X445316Y215225D01*
X445244Y215156D01*
X445175Y215084D01*
X445109Y215010D01*
X445045Y214932D01*
X444985Y214853D01*
X444928Y214771D01*
X444874Y214687D01*
X444824Y214601D01*
X444777Y214513D01*
X444733Y214423D01*
X444693Y214332D01*
X444657Y214239D01*
X444624Y214145D01*
X444595Y214049D01*
X444570Y213953D01*
X444549Y213856D01*
X444531Y213757D01*
X444518Y213659D01*
X444508Y213559D01*
X444502Y213460D01*
X444500Y213360D01*
X444500Y167640D01*
X444502Y167540D01*
X444508Y167441D01*
X444518Y167341D01*
X444531Y167243D01*
X444549Y167144D01*
X444570Y167047D01*
X444595Y166951D01*
X444624Y166855D01*
X444657Y166761D01*
X444693Y166668D01*
X444733Y166577D01*
X444777Y166487D01*
X444824Y166399D01*
X444874Y166313D01*
X444928Y166229D01*
X444985Y166147D01*
X445045Y166068D01*
X445109Y165990D01*
X445175Y165916D01*
X445244Y165844D01*
X445316Y165775D01*
X445390Y165709D01*
X445468Y165645D01*
X445547Y165585D01*
X445629Y165528D01*
X445713Y165474D01*
X445799Y165424D01*
X445887Y165377D01*
X445977Y165333D01*
X446068Y165293D01*
X446161Y165257D01*
X446255Y165224D01*
X446351Y165195D01*
X446447Y165170D01*
X446544Y165149D01*
X446643Y165131D01*
X446741Y165118D01*
X446841Y165108D01*
X446940Y165102D01*
X447040Y165100D01*
D10*
X463550Y171450D02*
X463243Y171454D01*
X462936Y171465D01*
X462630Y171483D01*
X462324Y171509D01*
X462019Y171543D01*
X461715Y171583D01*
X461412Y171631D01*
X461110Y171687D01*
X460810Y171749D01*
X460511Y171819D01*
X460214Y171896D01*
X459918Y171980D01*
X459625Y172072D01*
X459335Y172170D01*
X459047Y172275D01*
X458761Y172388D01*
X458478Y172507D01*
X458198Y172633D01*
X457921Y172765D01*
X457648Y172905D01*
X457378Y173051D01*
X457112Y173203D01*
X456849Y173362D01*
X456590Y173527D01*
X456336Y173698D01*
X456085Y173875D01*
X455839Y174059D01*
X455597Y174248D01*
X455361Y174443D01*
X455128Y174644D01*
X454901Y174850D01*
X454679Y175062D01*
X454462Y175279D01*
X454250Y175501D01*
X454044Y175728D01*
X453843Y175961D01*
X453648Y176197D01*
X453459Y176439D01*
X453275Y176685D01*
X453098Y176936D01*
X452927Y177190D01*
X452762Y177449D01*
X452603Y177712D01*
X452451Y177978D01*
X452305Y178248D01*
X452165Y178521D01*
X452033Y178798D01*
X451907Y179078D01*
X451788Y179361D01*
X451675Y179647D01*
X451570Y179935D01*
X451472Y180225D01*
X451380Y180518D01*
X451296Y180814D01*
X451219Y181111D01*
X451149Y181410D01*
X451087Y181710D01*
X451031Y182012D01*
X450983Y182315D01*
X450943Y182619D01*
X450909Y182924D01*
X450883Y183230D01*
X450865Y183536D01*
X450854Y183843D01*
X450850Y184150D01*
X450850Y196850D01*
X450854Y197157D01*
X450865Y197464D01*
X450883Y197770D01*
X450909Y198076D01*
X450943Y198381D01*
X450983Y198685D01*
X451031Y198988D01*
X451087Y199290D01*
X451149Y199590D01*
X451219Y199889D01*
X451296Y200186D01*
X451380Y200482D01*
X451472Y200775D01*
X451570Y201065D01*
X451675Y201353D01*
X451788Y201639D01*
X451907Y201922D01*
X452033Y202202D01*
X452165Y202479D01*
X452305Y202752D01*
X452451Y203022D01*
X452603Y203288D01*
X452762Y203551D01*
X452927Y203810D01*
X453098Y204064D01*
X453275Y204315D01*
X453459Y204561D01*
X453648Y204803D01*
X453843Y205039D01*
X454044Y205272D01*
X454250Y205499D01*
X454462Y205721D01*
X454679Y205938D01*
X454901Y206150D01*
X455128Y206356D01*
X455361Y206557D01*
X455597Y206752D01*
X455839Y206941D01*
X456085Y207125D01*
X456336Y207302D01*
X456590Y207473D01*
X456849Y207638D01*
X457112Y207797D01*
X457378Y207949D01*
X457648Y208095D01*
X457921Y208235D01*
X458198Y208367D01*
X458478Y208493D01*
X458761Y208612D01*
X459047Y208725D01*
X459335Y208830D01*
X459625Y208928D01*
X459918Y209020D01*
X460214Y209104D01*
X460511Y209181D01*
X460810Y209251D01*
X461110Y209313D01*
X461412Y209369D01*
X461715Y209417D01*
X462019Y209457D01*
X462324Y209491D01*
X462630Y209517D01*
X462936Y209535D01*
X463243Y209546D01*
X463550Y209550D01*
X463857Y209546D01*
X464164Y209535D01*
X464470Y209517D01*
X464776Y209491D01*
X465081Y209457D01*
X465385Y209417D01*
X465688Y209369D01*
X465990Y209313D01*
X466290Y209251D01*
X466589Y209181D01*
X466886Y209104D01*
X467182Y209020D01*
X467475Y208928D01*
X467765Y208830D01*
X468053Y208725D01*
X468339Y208612D01*
X468622Y208493D01*
X468902Y208367D01*
X469179Y208235D01*
X469452Y208095D01*
X469722Y207949D01*
X469988Y207797D01*
X470251Y207638D01*
X470510Y207473D01*
X470764Y207302D01*
X471015Y207125D01*
X471261Y206941D01*
X471503Y206752D01*
X471739Y206557D01*
X471972Y206356D01*
X472199Y206150D01*
X472421Y205938D01*
X472638Y205721D01*
X472850Y205499D01*
X473056Y205272D01*
X473257Y205039D01*
X473452Y204803D01*
X473641Y204561D01*
X473825Y204315D01*
X474002Y204064D01*
X474173Y203810D01*
X474338Y203551D01*
X474497Y203288D01*
X474649Y203022D01*
X474795Y202752D01*
X474935Y202479D01*
X475067Y202202D01*
X475193Y201922D01*
X475312Y201639D01*
X475425Y201353D01*
X475530Y201065D01*
X475628Y200775D01*
X475720Y200482D01*
X475804Y200186D01*
X475881Y199889D01*
X475951Y199590D01*
X476013Y199290D01*
X476069Y198988D01*
X476117Y198685D01*
X476157Y198381D01*
X476191Y198076D01*
X476217Y197770D01*
X476235Y197464D01*
X476246Y197157D01*
X476250Y196850D01*
X476250Y184150D01*
X476246Y183843D01*
X476235Y183536D01*
X476217Y183230D01*
X476191Y182924D01*
X476157Y182619D01*
X476117Y182315D01*
X476069Y182012D01*
X476013Y181710D01*
X475951Y181410D01*
X475881Y181111D01*
X475804Y180814D01*
X475720Y180518D01*
X475628Y180225D01*
X475530Y179935D01*
X475425Y179647D01*
X475312Y179361D01*
X475193Y179078D01*
X475067Y178798D01*
X474935Y178521D01*
X474795Y178248D01*
X474649Y177978D01*
X474497Y177712D01*
X474338Y177449D01*
X474173Y177190D01*
X474002Y176936D01*
X473825Y176685D01*
X473641Y176439D01*
X473452Y176197D01*
X473257Y175961D01*
X473056Y175728D01*
X472850Y175501D01*
X472638Y175279D01*
X472421Y175062D01*
X472199Y174850D01*
X471972Y174644D01*
X471739Y174443D01*
X471503Y174248D01*
X471261Y174059D01*
X471015Y173875D01*
X470764Y173698D01*
X470510Y173527D01*
X470251Y173362D01*
X469988Y173203D01*
X469722Y173051D01*
X469452Y172905D01*
X469179Y172765D01*
X468902Y172633D01*
X468622Y172507D01*
X468339Y172388D01*
X468053Y172275D01*
X467765Y172170D01*
X467475Y172072D01*
X467182Y171980D01*
X466886Y171896D01*
X466589Y171819D01*
X466290Y171749D01*
X465990Y171687D01*
X465688Y171631D01*
X465385Y171583D01*
X465081Y171543D01*
X464776Y171509D01*
X464470Y171483D01*
X464164Y171465D01*
X463857Y171454D01*
X463550Y171450D01*
D11*
X114300Y158750D02*
X88900Y158750D01*
X114300Y158750D02*
X215900Y158750D01*
X215900Y133350D01*
X114300Y133350D01*
X88900Y133350D01*
X88900Y158750D01*
X114300Y158750D02*
X114300Y133350D01*
X76200Y190500D02*
X63500Y190500D01*
X63500Y196850D02*
X76200Y196850D01*
X76200Y203200D02*
X63500Y203200D01*
X63500Y184150D02*
X76200Y184150D01*
X76200Y177800D02*
X63500Y177800D01*
D12*
X307577Y193739D02*
X307577Y209487D01*
X303203Y209487D02*
X311952Y209487D01*
X318349Y193739D02*
X325348Y193739D01*
X318349Y193739D02*
X318349Y209487D01*
X325348Y209487D01*
X323598Y202487D02*
X318349Y202487D01*
X331896Y193739D02*
X338895Y193739D01*
X331896Y193739D02*
X331896Y209487D01*
X338895Y209487D01*
X337145Y202487D02*
X331896Y202487D01*
X345407Y209487D02*
X345407Y193739D01*
X354156Y193739D02*
X345407Y209487D01*
X354156Y209487D02*
X354156Y193739D01*
X366288Y193738D02*
X366405Y193740D01*
X366522Y193746D01*
X366638Y193756D01*
X366754Y193769D01*
X366870Y193787D01*
X366985Y193808D01*
X367099Y193833D01*
X367213Y193862D01*
X367325Y193895D01*
X367436Y193932D01*
X367546Y193972D01*
X367654Y194016D01*
X367761Y194063D01*
X367867Y194114D01*
X367970Y194169D01*
X368072Y194227D01*
X368171Y194288D01*
X368269Y194352D01*
X368364Y194420D01*
X368457Y194491D01*
X368548Y194565D01*
X368636Y194642D01*
X368721Y194722D01*
X368804Y194805D01*
X368884Y194890D01*
X368961Y194978D01*
X369035Y195069D01*
X369106Y195162D01*
X369174Y195257D01*
X369238Y195355D01*
X369299Y195454D01*
X369357Y195556D01*
X369412Y195659D01*
X369463Y195765D01*
X369510Y195872D01*
X369554Y195980D01*
X369594Y196090D01*
X369631Y196201D01*
X369664Y196313D01*
X369693Y196427D01*
X369718Y196541D01*
X369739Y196656D01*
X369757Y196771D01*
X369770Y196888D01*
X369780Y197004D01*
X369786Y197121D01*
X369788Y197238D01*
X366288Y193738D02*
X366111Y193740D01*
X365934Y193746D01*
X365758Y193757D01*
X365581Y193772D01*
X365406Y193791D01*
X365230Y193814D01*
X365056Y193841D01*
X364881Y193873D01*
X364708Y193909D01*
X364536Y193949D01*
X364365Y193993D01*
X364194Y194041D01*
X364025Y194093D01*
X363858Y194149D01*
X363691Y194209D01*
X363526Y194273D01*
X363363Y194341D01*
X363201Y194413D01*
X363042Y194489D01*
X362884Y194568D01*
X362728Y194652D01*
X362574Y194739D01*
X362422Y194829D01*
X362272Y194924D01*
X362125Y195022D01*
X361980Y195123D01*
X361837Y195228D01*
X361697Y195336D01*
X361560Y195447D01*
X361425Y195562D01*
X361294Y195680D01*
X361165Y195801D01*
X361039Y195925D01*
X361475Y205987D02*
X361477Y206104D01*
X361483Y206221D01*
X361493Y206337D01*
X361506Y206454D01*
X361524Y206569D01*
X361545Y206684D01*
X361570Y206798D01*
X361599Y206912D01*
X361632Y207024D01*
X361669Y207135D01*
X361709Y207245D01*
X361753Y207353D01*
X361800Y207460D01*
X361851Y207566D01*
X361906Y207669D01*
X361964Y207771D01*
X362025Y207870D01*
X362089Y207968D01*
X362157Y208063D01*
X362228Y208156D01*
X362302Y208247D01*
X362379Y208335D01*
X362459Y208420D01*
X362542Y208503D01*
X362627Y208583D01*
X362715Y208660D01*
X362806Y208734D01*
X362899Y208805D01*
X362994Y208873D01*
X363092Y208937D01*
X363191Y208998D01*
X363293Y209056D01*
X363396Y209111D01*
X363502Y209162D01*
X363609Y209209D01*
X363717Y209253D01*
X363827Y209293D01*
X363938Y209330D01*
X364050Y209363D01*
X364164Y209392D01*
X364278Y209417D01*
X364393Y209438D01*
X364508Y209456D01*
X364625Y209469D01*
X364741Y209479D01*
X364858Y209485D01*
X364975Y209487D01*
X365131Y209485D01*
X365288Y209480D01*
X365444Y209470D01*
X365600Y209457D01*
X365755Y209440D01*
X365910Y209420D01*
X366065Y209396D01*
X366219Y209368D01*
X366372Y209337D01*
X366524Y209302D01*
X366676Y209263D01*
X366826Y209220D01*
X366976Y209175D01*
X367124Y209125D01*
X367271Y209072D01*
X367417Y209016D01*
X367562Y208956D01*
X367705Y208892D01*
X367846Y208826D01*
X367986Y208756D01*
X368124Y208682D01*
X368260Y208605D01*
X368395Y208526D01*
X368527Y208442D01*
X368658Y208356D01*
X368786Y208267D01*
X368912Y208175D01*
X363226Y202925D02*
X363127Y202985D01*
X363031Y203049D01*
X362937Y203115D01*
X362845Y203184D01*
X362755Y203257D01*
X362667Y203332D01*
X362583Y203410D01*
X362500Y203491D01*
X362421Y203574D01*
X362344Y203660D01*
X362270Y203748D01*
X362198Y203839D01*
X362130Y203932D01*
X362065Y204027D01*
X362003Y204125D01*
X361944Y204224D01*
X361889Y204325D01*
X361836Y204428D01*
X361788Y204532D01*
X361742Y204638D01*
X361700Y204745D01*
X361661Y204854D01*
X361626Y204964D01*
X361595Y205075D01*
X361567Y205187D01*
X361543Y205299D01*
X361523Y205413D01*
X361506Y205527D01*
X361493Y205642D01*
X361483Y205757D01*
X361478Y205872D01*
X361476Y205987D01*
X368037Y200300D02*
X368136Y200240D01*
X368232Y200176D01*
X368326Y200110D01*
X368418Y200041D01*
X368508Y199968D01*
X368596Y199893D01*
X368680Y199815D01*
X368763Y199734D01*
X368842Y199651D01*
X368919Y199565D01*
X368993Y199477D01*
X369065Y199386D01*
X369133Y199293D01*
X369198Y199198D01*
X369260Y199100D01*
X369319Y199001D01*
X369374Y198900D01*
X369427Y198797D01*
X369476Y198693D01*
X369521Y198587D01*
X369563Y198480D01*
X369602Y198371D01*
X369637Y198261D01*
X369668Y198150D01*
X369696Y198038D01*
X369720Y197926D01*
X369740Y197812D01*
X369757Y197698D01*
X369770Y197583D01*
X369780Y197468D01*
X369785Y197353D01*
X369787Y197238D01*
X368037Y200300D02*
X363226Y202925D01*
X375274Y209487D02*
X380523Y202050D01*
X385772Y209487D01*
X380523Y202050D02*
X380523Y193739D01*
X333546Y171514D02*
X329171Y171514D01*
X333546Y171514D02*
X333677Y171516D01*
X333808Y171522D01*
X333938Y171532D01*
X334068Y171545D01*
X334198Y171563D01*
X334327Y171584D01*
X334455Y171610D01*
X334583Y171639D01*
X334710Y171672D01*
X334835Y171708D01*
X334960Y171749D01*
X335083Y171793D01*
X335205Y171841D01*
X335325Y171892D01*
X335444Y171947D01*
X335561Y172006D01*
X335676Y172068D01*
X335789Y172133D01*
X335901Y172202D01*
X336010Y172274D01*
X336117Y172349D01*
X336222Y172428D01*
X336324Y172509D01*
X336424Y172594D01*
X336521Y172682D01*
X336616Y172772D01*
X336708Y172865D01*
X336797Y172961D01*
X336883Y173060D01*
X336966Y173161D01*
X337046Y173264D01*
X337123Y173370D01*
X337196Y173478D01*
X337267Y173589D01*
X337334Y173701D01*
X337398Y173815D01*
X337458Y173931D01*
X337515Y174049D01*
X337568Y174169D01*
X337618Y174290D01*
X337664Y174413D01*
X337706Y174536D01*
X337744Y174661D01*
X337779Y174788D01*
X337810Y174915D01*
X337838Y175043D01*
X337861Y175171D01*
X337880Y175301D01*
X337896Y175431D01*
X337908Y175561D01*
X337916Y175692D01*
X337920Y175823D01*
X337920Y175953D01*
X337916Y176084D01*
X337908Y176215D01*
X337896Y176345D01*
X337880Y176475D01*
X337861Y176605D01*
X337838Y176733D01*
X337810Y176861D01*
X337779Y176988D01*
X337744Y177115D01*
X337706Y177240D01*
X337664Y177363D01*
X337618Y177486D01*
X337568Y177607D01*
X337515Y177727D01*
X337458Y177845D01*
X337398Y177961D01*
X337334Y178075D01*
X337267Y178187D01*
X337196Y178298D01*
X337123Y178406D01*
X337046Y178512D01*
X336966Y178615D01*
X336883Y178716D01*
X336797Y178815D01*
X336708Y178911D01*
X336616Y179004D01*
X336521Y179094D01*
X336424Y179182D01*
X336324Y179267D01*
X336222Y179348D01*
X336117Y179427D01*
X336010Y179502D01*
X335901Y179574D01*
X335789Y179643D01*
X335676Y179708D01*
X335561Y179770D01*
X335444Y179829D01*
X335325Y179884D01*
X335205Y179935D01*
X335083Y179983D01*
X334960Y180027D01*
X334835Y180068D01*
X334710Y180104D01*
X334583Y180137D01*
X334455Y180166D01*
X334327Y180192D01*
X334198Y180213D01*
X334068Y180231D01*
X333938Y180244D01*
X333808Y180254D01*
X333677Y180260D01*
X333546Y180262D01*
X334421Y187262D02*
X329171Y187262D01*
X334421Y187262D02*
X334539Y187260D01*
X334657Y187254D01*
X334775Y187244D01*
X334892Y187230D01*
X335009Y187212D01*
X335126Y187190D01*
X335241Y187165D01*
X335355Y187135D01*
X335469Y187101D01*
X335581Y187064D01*
X335692Y187023D01*
X335801Y186978D01*
X335909Y186930D01*
X336015Y186878D01*
X336120Y186822D01*
X336222Y186763D01*
X336322Y186701D01*
X336420Y186635D01*
X336516Y186566D01*
X336610Y186493D01*
X336701Y186418D01*
X336789Y186339D01*
X336875Y186258D01*
X336958Y186173D01*
X337038Y186086D01*
X337115Y185997D01*
X337189Y185904D01*
X337259Y185810D01*
X337327Y185713D01*
X337391Y185613D01*
X337452Y185512D01*
X337509Y185409D01*
X337563Y185303D01*
X337614Y185196D01*
X337660Y185088D01*
X337703Y184978D01*
X337742Y184866D01*
X337778Y184753D01*
X337809Y184639D01*
X337837Y184524D01*
X337861Y184409D01*
X337881Y184292D01*
X337897Y184175D01*
X337909Y184057D01*
X337917Y183939D01*
X337921Y183821D01*
X337921Y183703D01*
X337917Y183585D01*
X337909Y183467D01*
X337897Y183349D01*
X337881Y183232D01*
X337861Y183115D01*
X337837Y183000D01*
X337809Y182885D01*
X337778Y182771D01*
X337742Y182658D01*
X337703Y182546D01*
X337660Y182436D01*
X337614Y182328D01*
X337563Y182221D01*
X337509Y182115D01*
X337452Y182012D01*
X337391Y181911D01*
X337327Y181811D01*
X337259Y181714D01*
X337189Y181620D01*
X337115Y181527D01*
X337038Y181438D01*
X336958Y181351D01*
X336875Y181266D01*
X336789Y181185D01*
X336701Y181106D01*
X336610Y181031D01*
X336516Y180958D01*
X336420Y180889D01*
X336322Y180823D01*
X336222Y180761D01*
X336120Y180702D01*
X336015Y180646D01*
X335909Y180594D01*
X335801Y180546D01*
X335692Y180501D01*
X335581Y180460D01*
X335469Y180423D01*
X335355Y180389D01*
X335241Y180359D01*
X335126Y180334D01*
X335009Y180312D01*
X334892Y180294D01*
X334775Y180280D01*
X334657Y180270D01*
X334539Y180264D01*
X334421Y180262D01*
X330921Y180262D01*
X344050Y172388D02*
X344050Y171514D01*
X344050Y172388D02*
X344925Y172388D01*
X344925Y171514D01*
X344050Y171514D01*
X351055Y180262D02*
X356304Y180262D01*
X356304Y180263D02*
X356421Y180261D01*
X356538Y180255D01*
X356654Y180245D01*
X356771Y180232D01*
X356886Y180214D01*
X357001Y180193D01*
X357115Y180168D01*
X357229Y180139D01*
X357341Y180106D01*
X357452Y180069D01*
X357562Y180029D01*
X357670Y179985D01*
X357777Y179938D01*
X357883Y179887D01*
X357986Y179832D01*
X358088Y179774D01*
X358187Y179713D01*
X358285Y179649D01*
X358380Y179581D01*
X358473Y179510D01*
X358564Y179436D01*
X358652Y179359D01*
X358737Y179279D01*
X358820Y179196D01*
X358900Y179111D01*
X358977Y179023D01*
X359051Y178932D01*
X359122Y178839D01*
X359190Y178744D01*
X359254Y178646D01*
X359315Y178547D01*
X359373Y178445D01*
X359428Y178342D01*
X359479Y178236D01*
X359526Y178129D01*
X359570Y178021D01*
X359610Y177911D01*
X359647Y177800D01*
X359680Y177688D01*
X359709Y177574D01*
X359734Y177460D01*
X359755Y177345D01*
X359773Y177230D01*
X359786Y177113D01*
X359796Y176997D01*
X359802Y176880D01*
X359804Y176763D01*
X359804Y175888D01*
X359803Y175888D02*
X359801Y175757D01*
X359795Y175626D01*
X359785Y175496D01*
X359772Y175366D01*
X359754Y175236D01*
X359733Y175107D01*
X359707Y174979D01*
X359678Y174851D01*
X359645Y174724D01*
X359609Y174599D01*
X359568Y174474D01*
X359524Y174351D01*
X359476Y174229D01*
X359425Y174109D01*
X359370Y173990D01*
X359311Y173873D01*
X359249Y173758D01*
X359184Y173645D01*
X359115Y173533D01*
X359043Y173424D01*
X358968Y173317D01*
X358889Y173212D01*
X358808Y173110D01*
X358723Y173010D01*
X358635Y172913D01*
X358545Y172818D01*
X358452Y172726D01*
X358356Y172637D01*
X358257Y172551D01*
X358156Y172468D01*
X358053Y172388D01*
X357947Y172311D01*
X357839Y172238D01*
X357728Y172167D01*
X357616Y172100D01*
X357502Y172036D01*
X357386Y171976D01*
X357268Y171919D01*
X357148Y171866D01*
X357027Y171816D01*
X356904Y171770D01*
X356781Y171728D01*
X356656Y171690D01*
X356529Y171655D01*
X356402Y171624D01*
X356274Y171596D01*
X356146Y171573D01*
X356016Y171554D01*
X355886Y171538D01*
X355756Y171526D01*
X355625Y171518D01*
X355494Y171514D01*
X355364Y171514D01*
X355233Y171518D01*
X355102Y171526D01*
X354972Y171538D01*
X354842Y171554D01*
X354712Y171573D01*
X354584Y171596D01*
X354456Y171624D01*
X354329Y171655D01*
X354202Y171690D01*
X354077Y171728D01*
X353954Y171770D01*
X353831Y171816D01*
X353710Y171866D01*
X353590Y171919D01*
X353472Y171976D01*
X353356Y172036D01*
X353242Y172100D01*
X353130Y172167D01*
X353019Y172238D01*
X352911Y172311D01*
X352805Y172388D01*
X352702Y172468D01*
X352601Y172551D01*
X352502Y172637D01*
X352406Y172726D01*
X352313Y172818D01*
X352223Y172913D01*
X352135Y173010D01*
X352050Y173110D01*
X351969Y173212D01*
X351890Y173317D01*
X351815Y173424D01*
X351743Y173533D01*
X351674Y173645D01*
X351609Y173758D01*
X351547Y173873D01*
X351488Y173990D01*
X351433Y174109D01*
X351382Y174229D01*
X351334Y174351D01*
X351290Y174474D01*
X351249Y174599D01*
X351213Y174724D01*
X351180Y174851D01*
X351151Y174979D01*
X351125Y175107D01*
X351104Y175236D01*
X351086Y175366D01*
X351073Y175496D01*
X351063Y175626D01*
X351057Y175757D01*
X351055Y175888D01*
X351055Y180262D01*
X351057Y180434D01*
X351063Y180605D01*
X351074Y180777D01*
X351089Y180948D01*
X351108Y181119D01*
X351131Y181289D01*
X351158Y181459D01*
X351189Y181627D01*
X351225Y181795D01*
X351265Y181963D01*
X351309Y182129D01*
X351356Y182294D01*
X351408Y182457D01*
X351464Y182620D01*
X351524Y182781D01*
X351588Y182940D01*
X351655Y183098D01*
X351727Y183254D01*
X351802Y183409D01*
X351881Y183561D01*
X351964Y183712D01*
X352051Y183860D01*
X352141Y184006D01*
X352235Y184150D01*
X352332Y184292D01*
X352432Y184431D01*
X352536Y184568D01*
X352644Y184702D01*
X352754Y184834D01*
X352868Y184962D01*
X352985Y185088D01*
X353105Y185211D01*
X353228Y185331D01*
X353354Y185448D01*
X353482Y185562D01*
X353614Y185672D01*
X353748Y185780D01*
X353885Y185884D01*
X354024Y185984D01*
X354166Y186081D01*
X354310Y186175D01*
X354456Y186265D01*
X354604Y186352D01*
X354755Y186435D01*
X354907Y186514D01*
X355062Y186589D01*
X355218Y186661D01*
X355376Y186728D01*
X355535Y186792D01*
X355696Y186852D01*
X355859Y186908D01*
X356022Y186960D01*
X356187Y187007D01*
X356353Y187051D01*
X356520Y187091D01*
X356689Y187127D01*
X356857Y187158D01*
X357027Y187185D01*
X357197Y187208D01*
X357368Y187227D01*
X357539Y187242D01*
X357711Y187253D01*
X357882Y187259D01*
X358054Y187261D01*
D10*
X508000Y241300D02*
X530860Y241300D01*
X530960Y241302D01*
X531059Y241308D01*
X531159Y241318D01*
X531257Y241331D01*
X531356Y241349D01*
X531453Y241370D01*
X531549Y241395D01*
X531645Y241424D01*
X531739Y241457D01*
X531832Y241493D01*
X531923Y241533D01*
X532013Y241577D01*
X532101Y241624D01*
X532187Y241674D01*
X532271Y241728D01*
X532353Y241785D01*
X532432Y241845D01*
X532510Y241909D01*
X532584Y241975D01*
X532656Y242044D01*
X532725Y242116D01*
X532791Y242190D01*
X532855Y242268D01*
X532915Y242347D01*
X532972Y242429D01*
X533026Y242513D01*
X533076Y242599D01*
X533123Y242687D01*
X533167Y242777D01*
X533207Y242868D01*
X533243Y242961D01*
X533276Y243055D01*
X533305Y243151D01*
X533330Y243247D01*
X533351Y243344D01*
X533369Y243443D01*
X533382Y243541D01*
X533392Y243641D01*
X533398Y243740D01*
X533400Y243840D01*
X533400Y254000D01*
X552450Y254000D02*
X552450Y243840D01*
X552452Y243740D01*
X552458Y243641D01*
X552468Y243541D01*
X552481Y243443D01*
X552499Y243344D01*
X552520Y243247D01*
X552545Y243151D01*
X552574Y243055D01*
X552607Y242961D01*
X552643Y242868D01*
X552683Y242777D01*
X552727Y242687D01*
X552774Y242599D01*
X552824Y242513D01*
X552878Y242429D01*
X552935Y242347D01*
X552995Y242268D01*
X553059Y242190D01*
X553125Y242116D01*
X553194Y242044D01*
X553266Y241975D01*
X553340Y241909D01*
X553418Y241845D01*
X553497Y241785D01*
X553579Y241728D01*
X553663Y241674D01*
X553749Y241624D01*
X553837Y241577D01*
X553927Y241533D01*
X554018Y241493D01*
X554111Y241457D01*
X554205Y241424D01*
X554301Y241395D01*
X554397Y241370D01*
X554494Y241349D01*
X554593Y241331D01*
X554691Y241318D01*
X554791Y241308D01*
X554890Y241302D01*
X554990Y241300D01*
X568960Y241300D01*
X569060Y241302D01*
X569159Y241308D01*
X569259Y241318D01*
X569357Y241331D01*
X569456Y241349D01*
X569553Y241370D01*
X569649Y241395D01*
X569745Y241424D01*
X569839Y241457D01*
X569932Y241493D01*
X570023Y241533D01*
X570113Y241577D01*
X570201Y241624D01*
X570287Y241674D01*
X570371Y241728D01*
X570453Y241785D01*
X570532Y241845D01*
X570610Y241909D01*
X570684Y241975D01*
X570756Y242044D01*
X570825Y242116D01*
X570891Y242190D01*
X570955Y242268D01*
X571015Y242347D01*
X571072Y242429D01*
X571126Y242513D01*
X571176Y242599D01*
X571223Y242687D01*
X571267Y242777D01*
X571307Y242868D01*
X571343Y242961D01*
X571376Y243055D01*
X571405Y243151D01*
X571430Y243247D01*
X571451Y243344D01*
X571469Y243443D01*
X571482Y243541D01*
X571492Y243641D01*
X571498Y243740D01*
X571500Y243840D01*
X571500Y254000D01*
D11*
X76200Y209550D02*
X63500Y209550D01*
X76200Y209550D02*
X76200Y222250D01*
X63500Y222250D01*
X63500Y171450D02*
X76200Y171450D01*
X76200Y158750D01*
X63500Y158750D01*
X31750Y228600D02*
X31750Y241300D01*
X44450Y241300D01*
X44450Y228600D01*
X31750Y152400D02*
X31750Y139700D01*
X44450Y139700D01*
X44450Y152400D01*
X34925Y222250D02*
X19050Y222250D01*
X34925Y222250D02*
X35036Y222248D01*
X35146Y222242D01*
X35257Y222233D01*
X35367Y222219D01*
X35476Y222202D01*
X35585Y222181D01*
X35693Y222156D01*
X35800Y222127D01*
X35906Y222095D01*
X36011Y222059D01*
X36114Y222019D01*
X36216Y221976D01*
X36317Y221929D01*
X36416Y221878D01*
X36513Y221825D01*
X36607Y221768D01*
X36700Y221707D01*
X36791Y221644D01*
X36880Y221577D01*
X36966Y221507D01*
X37049Y221434D01*
X37131Y221359D01*
X37209Y221281D01*
X37284Y221199D01*
X37357Y221116D01*
X37427Y221030D01*
X37494Y220941D01*
X37557Y220850D01*
X37618Y220757D01*
X37675Y220663D01*
X37728Y220566D01*
X37779Y220467D01*
X37826Y220366D01*
X37869Y220264D01*
X37909Y220161D01*
X37945Y220056D01*
X37977Y219950D01*
X38006Y219843D01*
X38031Y219735D01*
X38052Y219626D01*
X38069Y219517D01*
X38083Y219407D01*
X38092Y219296D01*
X38098Y219186D01*
X38100Y219075D01*
X38100Y212725D01*
X38098Y212614D01*
X38092Y212504D01*
X38083Y212393D01*
X38069Y212283D01*
X38052Y212174D01*
X38031Y212065D01*
X38006Y211957D01*
X37977Y211850D01*
X37945Y211744D01*
X37909Y211639D01*
X37869Y211536D01*
X37826Y211434D01*
X37779Y211333D01*
X37728Y211234D01*
X37675Y211137D01*
X37618Y211043D01*
X37557Y210950D01*
X37494Y210859D01*
X37427Y210770D01*
X37357Y210684D01*
X37284Y210601D01*
X37209Y210519D01*
X37131Y210441D01*
X37049Y210366D01*
X36966Y210293D01*
X36880Y210223D01*
X36791Y210156D01*
X36700Y210093D01*
X36607Y210032D01*
X36512Y209975D01*
X36416Y209922D01*
X36317Y209871D01*
X36216Y209824D01*
X36114Y209781D01*
X36011Y209741D01*
X35906Y209705D01*
X35800Y209673D01*
X35693Y209644D01*
X35585Y209619D01*
X35476Y209598D01*
X35367Y209581D01*
X35257Y209567D01*
X35146Y209558D01*
X35036Y209552D01*
X34925Y209550D01*
X19050Y209550D01*
X19050Y158750D02*
X34925Y158750D01*
X35036Y158752D01*
X35146Y158758D01*
X35257Y158767D01*
X35367Y158781D01*
X35476Y158798D01*
X35585Y158819D01*
X35693Y158844D01*
X35800Y158873D01*
X35906Y158905D01*
X36011Y158941D01*
X36114Y158981D01*
X36216Y159024D01*
X36317Y159071D01*
X36416Y159122D01*
X36512Y159175D01*
X36607Y159232D01*
X36700Y159293D01*
X36791Y159356D01*
X36880Y159423D01*
X36966Y159493D01*
X37049Y159566D01*
X37131Y159641D01*
X37209Y159719D01*
X37284Y159801D01*
X37357Y159884D01*
X37427Y159970D01*
X37494Y160059D01*
X37557Y160150D01*
X37618Y160243D01*
X37675Y160337D01*
X37728Y160434D01*
X37779Y160533D01*
X37826Y160634D01*
X37869Y160736D01*
X37909Y160839D01*
X37945Y160944D01*
X37977Y161050D01*
X38006Y161157D01*
X38031Y161265D01*
X38052Y161374D01*
X38069Y161483D01*
X38083Y161593D01*
X38092Y161704D01*
X38098Y161814D01*
X38100Y161925D01*
X38100Y168275D01*
X38098Y168386D01*
X38092Y168496D01*
X38083Y168607D01*
X38069Y168717D01*
X38052Y168826D01*
X38031Y168935D01*
X38006Y169043D01*
X37977Y169150D01*
X37945Y169256D01*
X37909Y169361D01*
X37869Y169464D01*
X37826Y169566D01*
X37779Y169667D01*
X37728Y169766D01*
X37675Y169863D01*
X37618Y169957D01*
X37557Y170050D01*
X37494Y170141D01*
X37427Y170230D01*
X37357Y170316D01*
X37284Y170399D01*
X37209Y170481D01*
X37131Y170559D01*
X37049Y170634D01*
X36966Y170707D01*
X36880Y170777D01*
X36791Y170844D01*
X36700Y170907D01*
X36607Y170968D01*
X36513Y171025D01*
X36416Y171078D01*
X36317Y171129D01*
X36216Y171176D01*
X36114Y171219D01*
X36011Y171259D01*
X35906Y171295D01*
X35800Y171327D01*
X35693Y171356D01*
X35585Y171381D01*
X35476Y171402D01*
X35367Y171419D01*
X35257Y171433D01*
X35146Y171442D01*
X35036Y171448D01*
X34925Y171450D01*
X19050Y171450D01*
X19050Y209550D02*
X19050Y222250D01*
X19050Y171450D02*
X19050Y158750D01*
X260350Y133350D02*
X264160Y133350D01*
X264260Y133352D01*
X264359Y133358D01*
X264459Y133368D01*
X264557Y133381D01*
X264656Y133399D01*
X264753Y133420D01*
X264849Y133445D01*
X264945Y133474D01*
X265039Y133507D01*
X265132Y133543D01*
X265223Y133583D01*
X265313Y133627D01*
X265401Y133674D01*
X265487Y133724D01*
X265571Y133778D01*
X265653Y133835D01*
X265732Y133895D01*
X265810Y133959D01*
X265884Y134025D01*
X265956Y134094D01*
X266025Y134166D01*
X266091Y134240D01*
X266155Y134318D01*
X266215Y134397D01*
X266272Y134479D01*
X266326Y134563D01*
X266376Y134649D01*
X266423Y134737D01*
X266467Y134827D01*
X266507Y134918D01*
X266543Y135011D01*
X266576Y135105D01*
X266605Y135201D01*
X266630Y135297D01*
X266651Y135394D01*
X266669Y135493D01*
X266682Y135591D01*
X266692Y135691D01*
X266698Y135790D01*
X266700Y135890D01*
X266700Y139700D01*
X266700Y146050D01*
X266700Y152400D01*
X266700Y158750D01*
X266700Y162560D01*
X266698Y162660D01*
X266692Y162759D01*
X266682Y162859D01*
X266669Y162957D01*
X266651Y163056D01*
X266630Y163153D01*
X266605Y163249D01*
X266576Y163345D01*
X266543Y163439D01*
X266507Y163532D01*
X266467Y163623D01*
X266423Y163713D01*
X266376Y163801D01*
X266326Y163887D01*
X266272Y163971D01*
X266215Y164053D01*
X266155Y164132D01*
X266091Y164210D01*
X266025Y164284D01*
X265956Y164356D01*
X265884Y164425D01*
X265810Y164491D01*
X265732Y164555D01*
X265653Y164615D01*
X265571Y164672D01*
X265487Y164726D01*
X265401Y164776D01*
X265313Y164823D01*
X265223Y164867D01*
X265132Y164907D01*
X265039Y164943D01*
X264945Y164976D01*
X264849Y165005D01*
X264753Y165030D01*
X264656Y165051D01*
X264557Y165069D01*
X264459Y165082D01*
X264359Y165092D01*
X264260Y165098D01*
X264160Y165100D01*
X260350Y165100D01*
X254000Y165100D01*
X247650Y165100D01*
X241300Y165100D01*
X237490Y165100D01*
X237390Y165098D01*
X237291Y165092D01*
X237191Y165082D01*
X237093Y165069D01*
X236994Y165051D01*
X236897Y165030D01*
X236801Y165005D01*
X236705Y164976D01*
X236611Y164943D01*
X236518Y164907D01*
X236427Y164867D01*
X236337Y164823D01*
X236249Y164776D01*
X236163Y164726D01*
X236079Y164672D01*
X235997Y164615D01*
X235918Y164555D01*
X235840Y164491D01*
X235766Y164425D01*
X235694Y164356D01*
X235625Y164284D01*
X235559Y164210D01*
X235495Y164132D01*
X235435Y164053D01*
X235378Y163971D01*
X235324Y163887D01*
X235274Y163801D01*
X235227Y163713D01*
X235183Y163623D01*
X235143Y163532D01*
X235107Y163439D01*
X235074Y163345D01*
X235045Y163249D01*
X235020Y163153D01*
X234999Y163056D01*
X234981Y162957D01*
X234968Y162859D01*
X234958Y162759D01*
X234952Y162660D01*
X234950Y162560D01*
X234950Y158750D01*
X234950Y152400D01*
X234950Y146050D01*
X234950Y139700D01*
X234950Y135890D01*
X234952Y135790D01*
X234958Y135691D01*
X234968Y135591D01*
X234981Y135493D01*
X234999Y135394D01*
X235020Y135297D01*
X235045Y135201D01*
X235074Y135105D01*
X235107Y135011D01*
X235143Y134918D01*
X235183Y134827D01*
X235227Y134737D01*
X235274Y134649D01*
X235324Y134563D01*
X235378Y134479D01*
X235435Y134397D01*
X235495Y134318D01*
X235559Y134240D01*
X235625Y134166D01*
X235694Y134094D01*
X235766Y134025D01*
X235840Y133959D01*
X235918Y133895D01*
X235997Y133835D01*
X236079Y133778D01*
X236163Y133724D01*
X236249Y133674D01*
X236337Y133627D01*
X236427Y133583D01*
X236518Y133543D01*
X236611Y133507D01*
X236705Y133474D01*
X236801Y133445D01*
X236897Y133420D01*
X236994Y133399D01*
X237093Y133381D01*
X237191Y133368D01*
X237291Y133358D01*
X237390Y133352D01*
X237490Y133350D01*
X241300Y133350D01*
X247650Y133350D01*
X254000Y133350D01*
X260350Y133350D01*
X184150Y180340D02*
X184150Y200660D01*
X184150Y180340D02*
X184152Y180240D01*
X184158Y180141D01*
X184168Y180041D01*
X184181Y179943D01*
X184199Y179844D01*
X184220Y179747D01*
X184245Y179651D01*
X184274Y179555D01*
X184307Y179461D01*
X184343Y179368D01*
X184383Y179277D01*
X184427Y179187D01*
X184474Y179099D01*
X184524Y179013D01*
X184578Y178929D01*
X184635Y178847D01*
X184695Y178768D01*
X184759Y178690D01*
X184825Y178616D01*
X184894Y178544D01*
X184966Y178475D01*
X185040Y178409D01*
X185118Y178345D01*
X185197Y178285D01*
X185279Y178228D01*
X185363Y178174D01*
X185449Y178124D01*
X185537Y178077D01*
X185627Y178033D01*
X185718Y177993D01*
X185811Y177957D01*
X185905Y177924D01*
X186001Y177895D01*
X186097Y177870D01*
X186194Y177849D01*
X186293Y177831D01*
X186391Y177818D01*
X186491Y177808D01*
X186590Y177802D01*
X186690Y177800D01*
X207010Y177800D01*
X207110Y177802D01*
X207209Y177808D01*
X207309Y177818D01*
X207407Y177831D01*
X207506Y177849D01*
X207603Y177870D01*
X207699Y177895D01*
X207795Y177924D01*
X207889Y177957D01*
X207982Y177993D01*
X208073Y178033D01*
X208163Y178077D01*
X208251Y178124D01*
X208337Y178174D01*
X208421Y178228D01*
X208503Y178285D01*
X208582Y178345D01*
X208660Y178409D01*
X208734Y178475D01*
X208806Y178544D01*
X208875Y178616D01*
X208941Y178690D01*
X209005Y178768D01*
X209065Y178847D01*
X209122Y178929D01*
X209176Y179013D01*
X209226Y179099D01*
X209273Y179187D01*
X209317Y179277D01*
X209357Y179368D01*
X209393Y179461D01*
X209426Y179555D01*
X209455Y179651D01*
X209480Y179747D01*
X209501Y179844D01*
X209519Y179943D01*
X209532Y180041D01*
X209542Y180141D01*
X209548Y180240D01*
X209550Y180340D01*
X209550Y200660D01*
X209548Y200760D01*
X209542Y200859D01*
X209532Y200959D01*
X209519Y201057D01*
X209501Y201156D01*
X209480Y201253D01*
X209455Y201349D01*
X209426Y201445D01*
X209393Y201539D01*
X209357Y201632D01*
X209317Y201723D01*
X209273Y201813D01*
X209226Y201901D01*
X209176Y201987D01*
X209122Y202071D01*
X209065Y202153D01*
X209005Y202232D01*
X208941Y202310D01*
X208875Y202384D01*
X208806Y202456D01*
X208734Y202525D01*
X208660Y202591D01*
X208582Y202655D01*
X208503Y202715D01*
X208421Y202772D01*
X208337Y202826D01*
X208251Y202876D01*
X208163Y202923D01*
X208073Y202967D01*
X207982Y203007D01*
X207889Y203043D01*
X207795Y203076D01*
X207699Y203105D01*
X207603Y203130D01*
X207506Y203151D01*
X207407Y203169D01*
X207309Y203182D01*
X207209Y203192D01*
X207110Y203198D01*
X207010Y203200D01*
X186690Y203200D01*
X186590Y203198D01*
X186491Y203192D01*
X186391Y203182D01*
X186293Y203169D01*
X186194Y203151D01*
X186097Y203130D01*
X186001Y203105D01*
X185905Y203076D01*
X185811Y203043D01*
X185718Y203007D01*
X185627Y202967D01*
X185537Y202923D01*
X185449Y202876D01*
X185363Y202826D01*
X185279Y202772D01*
X185197Y202715D01*
X185118Y202655D01*
X185040Y202591D01*
X184966Y202525D01*
X184894Y202456D01*
X184825Y202384D01*
X184759Y202310D01*
X184695Y202232D01*
X184635Y202153D01*
X184578Y202071D01*
X184524Y201987D01*
X184474Y201901D01*
X184427Y201813D01*
X184383Y201723D01*
X184343Y201632D01*
X184307Y201539D01*
X184274Y201445D01*
X184245Y201349D01*
X184220Y201253D01*
X184199Y201156D01*
X184181Y201057D01*
X184168Y200959D01*
X184158Y200859D01*
X184152Y200760D01*
X184150Y200660D01*
X517525Y168910D02*
X517525Y164465D01*
X517527Y164365D01*
X517533Y164266D01*
X517543Y164166D01*
X517556Y164068D01*
X517574Y163969D01*
X517595Y163872D01*
X517620Y163776D01*
X517649Y163680D01*
X517682Y163586D01*
X517718Y163493D01*
X517758Y163402D01*
X517802Y163312D01*
X517849Y163224D01*
X517899Y163138D01*
X517953Y163054D01*
X518010Y162972D01*
X518070Y162893D01*
X518134Y162815D01*
X518200Y162741D01*
X518269Y162669D01*
X518341Y162600D01*
X518415Y162534D01*
X518493Y162470D01*
X518572Y162410D01*
X518654Y162353D01*
X518738Y162299D01*
X518824Y162249D01*
X518912Y162202D01*
X519002Y162158D01*
X519093Y162118D01*
X519186Y162082D01*
X519280Y162049D01*
X519376Y162020D01*
X519472Y161995D01*
X519569Y161974D01*
X519668Y161956D01*
X519766Y161943D01*
X519866Y161933D01*
X519965Y161927D01*
X520065Y161925D01*
X530860Y161925D01*
X530960Y161927D01*
X531059Y161933D01*
X531159Y161943D01*
X531257Y161956D01*
X531356Y161974D01*
X531453Y161995D01*
X531549Y162020D01*
X531645Y162049D01*
X531739Y162082D01*
X531832Y162118D01*
X531923Y162158D01*
X532013Y162202D01*
X532101Y162249D01*
X532187Y162299D01*
X532271Y162353D01*
X532353Y162410D01*
X532432Y162470D01*
X532510Y162534D01*
X532584Y162600D01*
X532656Y162669D01*
X532725Y162741D01*
X532791Y162815D01*
X532855Y162893D01*
X532915Y162972D01*
X532972Y163054D01*
X533026Y163138D01*
X533076Y163224D01*
X533123Y163312D01*
X533167Y163402D01*
X533207Y163493D01*
X533243Y163586D01*
X533276Y163680D01*
X533305Y163776D01*
X533330Y163872D01*
X533351Y163969D01*
X533369Y164068D01*
X533382Y164166D01*
X533392Y164266D01*
X533398Y164365D01*
X533400Y164465D01*
X533400Y168910D01*
X533398Y169010D01*
X533392Y169109D01*
X533382Y169209D01*
X533369Y169307D01*
X533351Y169406D01*
X533330Y169503D01*
X533305Y169599D01*
X533276Y169695D01*
X533243Y169789D01*
X533207Y169882D01*
X533167Y169973D01*
X533123Y170063D01*
X533076Y170151D01*
X533026Y170237D01*
X532972Y170321D01*
X532915Y170403D01*
X532855Y170482D01*
X532791Y170560D01*
X532725Y170634D01*
X532656Y170706D01*
X532584Y170775D01*
X532510Y170841D01*
X532432Y170905D01*
X532353Y170965D01*
X532271Y171022D01*
X532187Y171076D01*
X532101Y171126D01*
X532013Y171173D01*
X531923Y171217D01*
X531832Y171257D01*
X531739Y171293D01*
X531645Y171326D01*
X531549Y171355D01*
X531453Y171380D01*
X531356Y171401D01*
X531257Y171419D01*
X531159Y171432D01*
X531059Y171442D01*
X530960Y171448D01*
X530860Y171450D01*
X520065Y171450D01*
X519965Y171448D01*
X519866Y171442D01*
X519766Y171432D01*
X519668Y171419D01*
X519569Y171401D01*
X519472Y171380D01*
X519376Y171355D01*
X519280Y171326D01*
X519186Y171293D01*
X519093Y171257D01*
X519002Y171217D01*
X518912Y171173D01*
X518824Y171126D01*
X518738Y171076D01*
X518654Y171022D01*
X518572Y170965D01*
X518493Y170905D01*
X518415Y170841D01*
X518341Y170775D01*
X518269Y170706D01*
X518200Y170634D01*
X518134Y170560D01*
X518070Y170482D01*
X518010Y170403D01*
X517953Y170321D01*
X517899Y170237D01*
X517849Y170151D01*
X517802Y170063D01*
X517758Y169973D01*
X517718Y169882D01*
X517682Y169789D01*
X517649Y169695D01*
X517620Y169599D01*
X517595Y169503D01*
X517574Y169406D01*
X517556Y169307D01*
X517543Y169209D01*
X517533Y169109D01*
X517527Y169010D01*
X517525Y168910D01*
X517525Y152400D02*
X517525Y136525D01*
X533400Y136525D01*
X269875Y152400D02*
X266700Y152400D01*
X266700Y146050D02*
X269875Y146050D01*
X269875Y139700D02*
X266700Y139700D01*
X266700Y158750D02*
X269875Y158750D01*
X260350Y165100D02*
X260350Y168275D01*
X254000Y168275D02*
X254000Y165100D01*
X247650Y165100D02*
X247650Y168275D01*
X241300Y168275D02*
X241300Y165100D01*
X234950Y158750D02*
X231775Y158750D01*
X231775Y152400D02*
X234950Y152400D01*
X234950Y146050D02*
X231775Y146050D01*
X231775Y139700D02*
X234950Y139700D01*
X260350Y133350D02*
X260350Y130175D01*
X254000Y130175D02*
X254000Y133350D01*
X247650Y133350D02*
X247650Y130175D01*
X241300Y130175D02*
X241300Y133350D01*
X593725Y244475D02*
X593725Y254000D01*
X593725Y244475D02*
X593727Y244364D01*
X593733Y244254D01*
X593742Y244143D01*
X593756Y244033D01*
X593773Y243924D01*
X593794Y243815D01*
X593819Y243707D01*
X593848Y243600D01*
X593880Y243494D01*
X593916Y243389D01*
X593956Y243286D01*
X593999Y243184D01*
X594046Y243083D01*
X594097Y242984D01*
X594150Y242888D01*
X594207Y242793D01*
X594268Y242700D01*
X594331Y242609D01*
X594398Y242520D01*
X594468Y242434D01*
X594541Y242351D01*
X594616Y242269D01*
X594694Y242191D01*
X594776Y242116D01*
X594859Y242043D01*
X594945Y241973D01*
X595034Y241906D01*
X595125Y241843D01*
X595218Y241782D01*
X595313Y241725D01*
X595409Y241672D01*
X595508Y241621D01*
X595609Y241574D01*
X595711Y241531D01*
X595814Y241491D01*
X595919Y241455D01*
X596025Y241423D01*
X596132Y241394D01*
X596240Y241369D01*
X596349Y241348D01*
X596458Y241331D01*
X596568Y241317D01*
X596679Y241308D01*
X596789Y241302D01*
X596900Y241300D01*
X606425Y241300D01*
X606425Y244475D01*
X606427Y244586D01*
X606433Y244696D01*
X606442Y244807D01*
X606456Y244917D01*
X606473Y245026D01*
X606494Y245135D01*
X606519Y245243D01*
X606548Y245350D01*
X606580Y245456D01*
X606616Y245561D01*
X606656Y245664D01*
X606699Y245766D01*
X606746Y245867D01*
X606797Y245966D01*
X606850Y246063D01*
X606907Y246157D01*
X606968Y246250D01*
X607031Y246341D01*
X607098Y246430D01*
X607168Y246516D01*
X607241Y246599D01*
X607316Y246681D01*
X607394Y246759D01*
X607476Y246834D01*
X607559Y246907D01*
X607645Y246977D01*
X607734Y247044D01*
X607825Y247107D01*
X607918Y247168D01*
X608013Y247225D01*
X608109Y247278D01*
X608208Y247329D01*
X608309Y247376D01*
X608411Y247419D01*
X608514Y247459D01*
X608619Y247495D01*
X608725Y247527D01*
X608832Y247556D01*
X608940Y247581D01*
X609049Y247602D01*
X609158Y247619D01*
X609268Y247633D01*
X609379Y247642D01*
X609489Y247648D01*
X609600Y247650D01*
X612775Y247650D01*
X63500Y203200D02*
X50800Y203200D01*
X50800Y222250D01*
X55451Y222250D01*
X55562Y222248D01*
X55674Y222242D01*
X55785Y222232D01*
X55895Y222219D01*
X56005Y222201D01*
X56115Y222180D01*
X56223Y222155D01*
X56331Y222126D01*
X56437Y222093D01*
X56543Y222056D01*
X56647Y222016D01*
X56749Y221973D01*
X56850Y221925D01*
X56949Y221874D01*
X57046Y221820D01*
X57142Y221762D01*
X57235Y221701D01*
X57326Y221637D01*
X57415Y221570D01*
X57501Y221499D01*
X57585Y221426D01*
X57666Y221350D01*
X57745Y221270D01*
X57820Y221189D01*
X57893Y221104D01*
X57963Y221017D01*
X58029Y220928D01*
X58093Y220836D01*
X63500Y212725D01*
X63500Y177800D02*
X50800Y177800D01*
X50800Y158750D01*
X55451Y158750D01*
X55562Y158752D01*
X55674Y158758D01*
X55785Y158768D01*
X55895Y158781D01*
X56005Y158799D01*
X56115Y158820D01*
X56223Y158845D01*
X56331Y158874D01*
X56437Y158907D01*
X56543Y158944D01*
X56647Y158984D01*
X56749Y159027D01*
X56850Y159075D01*
X56949Y159126D01*
X57046Y159180D01*
X57142Y159238D01*
X57235Y159299D01*
X57326Y159363D01*
X57415Y159430D01*
X57501Y159501D01*
X57585Y159574D01*
X57666Y159650D01*
X57745Y159730D01*
X57820Y159811D01*
X57893Y159896D01*
X57963Y159983D01*
X58029Y160072D01*
X58093Y160164D01*
X63500Y168275D01*
X65800Y83300D02*
X10400Y83300D01*
X65800Y83300D02*
X65800Y18300D01*
X10400Y18300D01*
X10400Y83300D01*
D13*
X1080Y50800D02*
X1082Y50889D01*
X1088Y50978D01*
X1098Y51067D01*
X1112Y51155D01*
X1129Y51242D01*
X1151Y51328D01*
X1177Y51414D01*
X1206Y51498D01*
X1239Y51581D01*
X1275Y51662D01*
X1316Y51742D01*
X1359Y51819D01*
X1406Y51895D01*
X1457Y51968D01*
X1510Y52039D01*
X1567Y52108D01*
X1627Y52174D01*
X1690Y52238D01*
X1755Y52298D01*
X1823Y52356D01*
X1894Y52410D01*
X1967Y52461D01*
X2042Y52509D01*
X2119Y52554D01*
X2198Y52595D01*
X2279Y52632D01*
X2361Y52666D01*
X2445Y52697D01*
X2530Y52723D01*
X2616Y52746D01*
X2703Y52764D01*
X2791Y52779D01*
X2880Y52790D01*
X2969Y52797D01*
X3058Y52800D01*
X3147Y52799D01*
X3236Y52794D01*
X3324Y52785D01*
X3413Y52772D01*
X3500Y52755D01*
X3587Y52735D01*
X3673Y52710D01*
X3757Y52682D01*
X3840Y52650D01*
X3922Y52614D01*
X4002Y52575D01*
X4080Y52532D01*
X4156Y52486D01*
X4230Y52436D01*
X4302Y52383D01*
X4371Y52327D01*
X4438Y52268D01*
X4502Y52206D01*
X4563Y52142D01*
X4622Y52074D01*
X4677Y52004D01*
X4729Y51932D01*
X4778Y51857D01*
X4823Y51781D01*
X4865Y51702D01*
X4903Y51622D01*
X4938Y51540D01*
X4969Y51456D01*
X4997Y51371D01*
X5020Y51285D01*
X5040Y51198D01*
X5056Y51111D01*
X5068Y51022D01*
X5076Y50934D01*
X5080Y50845D01*
X5080Y50755D01*
X5076Y50666D01*
X5068Y50578D01*
X5056Y50489D01*
X5040Y50402D01*
X5020Y50315D01*
X4997Y50229D01*
X4969Y50144D01*
X4938Y50060D01*
X4903Y49978D01*
X4865Y49898D01*
X4823Y49819D01*
X4778Y49743D01*
X4729Y49668D01*
X4677Y49596D01*
X4622Y49526D01*
X4563Y49458D01*
X4502Y49394D01*
X4438Y49332D01*
X4371Y49273D01*
X4302Y49217D01*
X4230Y49164D01*
X4156Y49114D01*
X4080Y49068D01*
X4002Y49025D01*
X3922Y48986D01*
X3840Y48950D01*
X3757Y48918D01*
X3673Y48890D01*
X3587Y48865D01*
X3500Y48845D01*
X3413Y48828D01*
X3324Y48815D01*
X3236Y48806D01*
X3147Y48801D01*
X3058Y48800D01*
X2969Y48803D01*
X2880Y48810D01*
X2791Y48821D01*
X2703Y48836D01*
X2616Y48854D01*
X2530Y48877D01*
X2445Y48903D01*
X2361Y48934D01*
X2279Y48968D01*
X2198Y49005D01*
X2119Y49046D01*
X2042Y49091D01*
X1967Y49139D01*
X1894Y49190D01*
X1823Y49244D01*
X1755Y49302D01*
X1690Y49362D01*
X1627Y49426D01*
X1567Y49492D01*
X1510Y49561D01*
X1457Y49632D01*
X1406Y49705D01*
X1359Y49781D01*
X1316Y49858D01*
X1275Y49938D01*
X1239Y50019D01*
X1206Y50102D01*
X1177Y50186D01*
X1151Y50272D01*
X1129Y50358D01*
X1112Y50445D01*
X1098Y50533D01*
X1088Y50622D01*
X1082Y50711D01*
X1080Y50800D01*
D14*
X8449Y88721D02*
X10907Y88721D01*
X10985Y88723D01*
X11063Y88728D01*
X11140Y88738D01*
X11217Y88751D01*
X11293Y88767D01*
X11369Y88787D01*
X11443Y88811D01*
X11516Y88838D01*
X11588Y88869D01*
X11658Y88903D01*
X11727Y88941D01*
X11793Y88981D01*
X11858Y89025D01*
X11920Y89072D01*
X11980Y89121D01*
X12038Y89174D01*
X12093Y89229D01*
X12146Y89287D01*
X12195Y89347D01*
X12242Y89409D01*
X12286Y89474D01*
X12326Y89541D01*
X12364Y89609D01*
X12398Y89679D01*
X12429Y89751D01*
X12456Y89824D01*
X12480Y89898D01*
X12500Y89974D01*
X12516Y90050D01*
X12529Y90127D01*
X12539Y90204D01*
X12544Y90282D01*
X12546Y90360D01*
X12546Y91179D01*
X12544Y91257D01*
X12539Y91335D01*
X12529Y91412D01*
X12516Y91489D01*
X12500Y91565D01*
X12480Y91641D01*
X12456Y91715D01*
X12429Y91788D01*
X12398Y91860D01*
X12364Y91930D01*
X12326Y91999D01*
X12286Y92065D01*
X12242Y92130D01*
X12195Y92192D01*
X12146Y92252D01*
X12093Y92310D01*
X12038Y92365D01*
X11980Y92418D01*
X11920Y92467D01*
X11858Y92514D01*
X11793Y92558D01*
X11727Y92598D01*
X11658Y92636D01*
X11588Y92670D01*
X11516Y92701D01*
X11443Y92728D01*
X11369Y92752D01*
X11293Y92772D01*
X11217Y92788D01*
X11140Y92801D01*
X11063Y92811D01*
X10985Y92816D01*
X10907Y92818D01*
X8449Y92818D01*
X8449Y96096D01*
X12546Y96096D01*
X15362Y96096D02*
X17820Y88721D01*
X20279Y96096D01*
X23679Y96096D02*
X23679Y88721D01*
X24498Y88721D02*
X22859Y88721D01*
X22859Y96096D02*
X24498Y96096D01*
X27733Y96096D02*
X27733Y88721D01*
X31830Y88721D02*
X27733Y96096D01*
X31830Y96096D02*
X31830Y88721D01*
X35662Y88721D02*
X35662Y96096D01*
X37710Y96096D01*
X37799Y96094D01*
X37889Y96088D01*
X37977Y96078D01*
X38066Y96065D01*
X38153Y96047D01*
X38240Y96026D01*
X38326Y96001D01*
X38411Y95972D01*
X38494Y95940D01*
X38576Y95904D01*
X38656Y95864D01*
X38735Y95821D01*
X38811Y95775D01*
X38885Y95725D01*
X38957Y95673D01*
X39027Y95617D01*
X39094Y95558D01*
X39159Y95496D01*
X39221Y95431D01*
X39280Y95364D01*
X39336Y95294D01*
X39388Y95222D01*
X39438Y95148D01*
X39484Y95072D01*
X39527Y94993D01*
X39567Y94913D01*
X39603Y94831D01*
X39635Y94748D01*
X39664Y94663D01*
X39689Y94577D01*
X39710Y94490D01*
X39728Y94403D01*
X39741Y94314D01*
X39751Y94226D01*
X39757Y94136D01*
X39759Y94047D01*
X39757Y93958D01*
X39751Y93868D01*
X39741Y93780D01*
X39728Y93691D01*
X39710Y93604D01*
X39689Y93517D01*
X39664Y93431D01*
X39635Y93346D01*
X39603Y93263D01*
X39567Y93181D01*
X39527Y93101D01*
X39484Y93023D01*
X39438Y92946D01*
X39388Y92872D01*
X39336Y92800D01*
X39280Y92730D01*
X39221Y92663D01*
X39159Y92598D01*
X39094Y92536D01*
X39027Y92477D01*
X38957Y92421D01*
X38885Y92369D01*
X38811Y92319D01*
X38735Y92273D01*
X38656Y92230D01*
X38576Y92190D01*
X38494Y92154D01*
X38411Y92122D01*
X38326Y92093D01*
X38240Y92068D01*
X38153Y92047D01*
X38066Y92029D01*
X37977Y92016D01*
X37889Y92006D01*
X37799Y92000D01*
X37710Y91998D01*
X37710Y91999D02*
X35662Y91999D01*
X42867Y90770D02*
X42867Y96096D01*
X42866Y90770D02*
X42868Y90681D01*
X42874Y90591D01*
X42884Y90503D01*
X42897Y90414D01*
X42915Y90327D01*
X42936Y90240D01*
X42961Y90154D01*
X42990Y90069D01*
X43022Y89986D01*
X43058Y89904D01*
X43098Y89824D01*
X43141Y89746D01*
X43187Y89669D01*
X43237Y89595D01*
X43289Y89523D01*
X43345Y89453D01*
X43404Y89386D01*
X43466Y89321D01*
X43531Y89259D01*
X43598Y89200D01*
X43668Y89144D01*
X43740Y89092D01*
X43814Y89042D01*
X43891Y88996D01*
X43969Y88953D01*
X44049Y88913D01*
X44131Y88877D01*
X44214Y88845D01*
X44299Y88816D01*
X44385Y88791D01*
X44472Y88770D01*
X44559Y88752D01*
X44648Y88739D01*
X44736Y88729D01*
X44826Y88723D01*
X44915Y88721D01*
X45004Y88723D01*
X45094Y88729D01*
X45182Y88739D01*
X45271Y88752D01*
X45358Y88770D01*
X45445Y88791D01*
X45531Y88816D01*
X45616Y88845D01*
X45699Y88877D01*
X45781Y88913D01*
X45861Y88953D01*
X45939Y88996D01*
X46016Y89042D01*
X46090Y89092D01*
X46162Y89144D01*
X46232Y89200D01*
X46299Y89259D01*
X46364Y89321D01*
X46426Y89386D01*
X46485Y89453D01*
X46541Y89523D01*
X46593Y89595D01*
X46643Y89669D01*
X46689Y89746D01*
X46732Y89824D01*
X46772Y89904D01*
X46808Y89986D01*
X46840Y90069D01*
X46869Y90154D01*
X46894Y90240D01*
X46915Y90327D01*
X46933Y90414D01*
X46946Y90503D01*
X46956Y90591D01*
X46962Y90681D01*
X46964Y90770D01*
X46964Y96096D01*
X51994Y96096D02*
X51994Y88721D01*
X49946Y96096D02*
X54043Y96096D01*
D11*
X88900Y25400D02*
X342900Y25400D01*
X342900Y50800D01*
X88900Y50800D01*
X88900Y25400D01*
D15*
X114808Y54554D02*
X114808Y59746D01*
X114810Y59859D01*
X114816Y59972D01*
X114826Y60085D01*
X114840Y60198D01*
X114857Y60310D01*
X114879Y60421D01*
X114904Y60531D01*
X114934Y60641D01*
X114967Y60749D01*
X115004Y60856D01*
X115044Y60962D01*
X115089Y61066D01*
X115137Y61169D01*
X115188Y61270D01*
X115243Y61369D01*
X115301Y61466D01*
X115363Y61561D01*
X115428Y61654D01*
X115496Y61744D01*
X115567Y61832D01*
X115642Y61918D01*
X115719Y62001D01*
X115799Y62081D01*
X115882Y62158D01*
X115968Y62233D01*
X116056Y62304D01*
X116146Y62372D01*
X116239Y62437D01*
X116334Y62499D01*
X116431Y62557D01*
X116530Y62612D01*
X116631Y62663D01*
X116734Y62711D01*
X116838Y62756D01*
X116944Y62796D01*
X117051Y62833D01*
X117159Y62866D01*
X117269Y62896D01*
X117379Y62921D01*
X117490Y62943D01*
X117602Y62960D01*
X117715Y62974D01*
X117828Y62984D01*
X117941Y62990D01*
X118054Y62992D01*
X118167Y62990D01*
X118280Y62984D01*
X118393Y62974D01*
X118506Y62960D01*
X118618Y62943D01*
X118729Y62921D01*
X118839Y62896D01*
X118949Y62866D01*
X119057Y62833D01*
X119164Y62796D01*
X119270Y62756D01*
X119374Y62711D01*
X119477Y62663D01*
X119578Y62612D01*
X119677Y62557D01*
X119774Y62499D01*
X119869Y62437D01*
X119962Y62372D01*
X120052Y62304D01*
X120140Y62233D01*
X120226Y62158D01*
X120309Y62081D01*
X120389Y62001D01*
X120466Y61918D01*
X120541Y61832D01*
X120612Y61744D01*
X120680Y61654D01*
X120745Y61561D01*
X120807Y61466D01*
X120865Y61369D01*
X120920Y61270D01*
X120971Y61169D01*
X121019Y61066D01*
X121064Y60962D01*
X121104Y60856D01*
X121141Y60749D01*
X121174Y60641D01*
X121204Y60531D01*
X121229Y60421D01*
X121251Y60310D01*
X121268Y60198D01*
X121282Y60085D01*
X121292Y59972D01*
X121298Y59859D01*
X121300Y59746D01*
X121299Y59746D02*
X121299Y54554D01*
X121300Y54554D02*
X121298Y54441D01*
X121292Y54328D01*
X121282Y54215D01*
X121268Y54102D01*
X121251Y53990D01*
X121229Y53879D01*
X121204Y53769D01*
X121174Y53659D01*
X121141Y53551D01*
X121104Y53444D01*
X121064Y53338D01*
X121019Y53234D01*
X120971Y53131D01*
X120920Y53030D01*
X120865Y52931D01*
X120807Y52834D01*
X120745Y52739D01*
X120680Y52646D01*
X120612Y52556D01*
X120541Y52468D01*
X120466Y52382D01*
X120389Y52299D01*
X120309Y52219D01*
X120226Y52142D01*
X120140Y52067D01*
X120052Y51996D01*
X119962Y51928D01*
X119869Y51863D01*
X119774Y51801D01*
X119677Y51743D01*
X119578Y51688D01*
X119477Y51637D01*
X119374Y51589D01*
X119270Y51544D01*
X119164Y51504D01*
X119057Y51467D01*
X118949Y51434D01*
X118839Y51404D01*
X118729Y51379D01*
X118618Y51357D01*
X118506Y51340D01*
X118393Y51326D01*
X118280Y51316D01*
X118167Y51310D01*
X118054Y51308D01*
X117941Y51310D01*
X117828Y51316D01*
X117715Y51326D01*
X117602Y51340D01*
X117490Y51357D01*
X117379Y51379D01*
X117269Y51404D01*
X117159Y51434D01*
X117051Y51467D01*
X116944Y51504D01*
X116838Y51544D01*
X116734Y51589D01*
X116631Y51637D01*
X116530Y51688D01*
X116431Y51743D01*
X116334Y51801D01*
X116239Y51863D01*
X116146Y51928D01*
X116056Y51996D01*
X115968Y52067D01*
X115882Y52142D01*
X115799Y52219D01*
X115719Y52299D01*
X115642Y52382D01*
X115567Y52468D01*
X115496Y52556D01*
X115428Y52646D01*
X115363Y52739D01*
X115301Y52834D01*
X115243Y52931D01*
X115188Y53030D01*
X115137Y53131D01*
X115089Y53234D01*
X115044Y53338D01*
X115004Y53444D01*
X114967Y53551D01*
X114934Y53659D01*
X114904Y53769D01*
X114879Y53879D01*
X114857Y53990D01*
X114840Y54102D01*
X114826Y54215D01*
X114816Y54328D01*
X114810Y54441D01*
X114808Y54554D01*
X126788Y51308D02*
X126788Y62992D01*
X130034Y62992D01*
X130147Y62990D01*
X130260Y62984D01*
X130373Y62974D01*
X130486Y62960D01*
X130598Y62943D01*
X130709Y62921D01*
X130819Y62896D01*
X130929Y62866D01*
X131037Y62833D01*
X131144Y62796D01*
X131250Y62756D01*
X131354Y62711D01*
X131457Y62663D01*
X131558Y62612D01*
X131657Y62557D01*
X131754Y62499D01*
X131849Y62437D01*
X131942Y62372D01*
X132032Y62304D01*
X132120Y62233D01*
X132206Y62158D01*
X132289Y62081D01*
X132369Y62001D01*
X132446Y61918D01*
X132521Y61832D01*
X132592Y61744D01*
X132660Y61654D01*
X132725Y61561D01*
X132787Y61466D01*
X132845Y61369D01*
X132900Y61270D01*
X132951Y61169D01*
X132999Y61066D01*
X133044Y60962D01*
X133084Y60856D01*
X133121Y60749D01*
X133154Y60641D01*
X133184Y60531D01*
X133209Y60421D01*
X133231Y60310D01*
X133248Y60198D01*
X133262Y60085D01*
X133272Y59972D01*
X133278Y59859D01*
X133280Y59746D01*
X133278Y59633D01*
X133272Y59520D01*
X133262Y59407D01*
X133248Y59294D01*
X133231Y59182D01*
X133209Y59071D01*
X133184Y58961D01*
X133154Y58851D01*
X133121Y58743D01*
X133084Y58636D01*
X133044Y58530D01*
X132999Y58426D01*
X132951Y58323D01*
X132900Y58222D01*
X132845Y58123D01*
X132787Y58026D01*
X132725Y57931D01*
X132660Y57838D01*
X132592Y57748D01*
X132521Y57660D01*
X132446Y57574D01*
X132369Y57491D01*
X132289Y57411D01*
X132206Y57334D01*
X132120Y57259D01*
X132032Y57188D01*
X131942Y57120D01*
X131849Y57055D01*
X131754Y56993D01*
X131657Y56935D01*
X131558Y56880D01*
X131457Y56829D01*
X131354Y56781D01*
X131250Y56736D01*
X131144Y56696D01*
X131037Y56659D01*
X130929Y56626D01*
X130819Y56596D01*
X130709Y56571D01*
X130598Y56549D01*
X130486Y56532D01*
X130373Y56518D01*
X130260Y56508D01*
X130147Y56502D01*
X130034Y56500D01*
X130034Y56501D02*
X126788Y56501D01*
X140231Y51308D02*
X142828Y51308D01*
X140231Y51308D02*
X140132Y51310D01*
X140032Y51316D01*
X139933Y51325D01*
X139835Y51338D01*
X139737Y51355D01*
X139639Y51376D01*
X139543Y51401D01*
X139448Y51429D01*
X139354Y51461D01*
X139261Y51496D01*
X139169Y51535D01*
X139079Y51578D01*
X138991Y51623D01*
X138904Y51673D01*
X138820Y51725D01*
X138737Y51781D01*
X138657Y51839D01*
X138579Y51901D01*
X138504Y51966D01*
X138431Y52034D01*
X138361Y52104D01*
X138293Y52177D01*
X138228Y52252D01*
X138166Y52330D01*
X138108Y52410D01*
X138052Y52493D01*
X138000Y52577D01*
X137950Y52664D01*
X137905Y52752D01*
X137862Y52842D01*
X137823Y52934D01*
X137788Y53027D01*
X137756Y53121D01*
X137728Y53216D01*
X137703Y53312D01*
X137682Y53410D01*
X137665Y53508D01*
X137652Y53606D01*
X137643Y53705D01*
X137637Y53805D01*
X137635Y53904D01*
X137635Y60396D01*
X137637Y60495D01*
X137643Y60595D01*
X137652Y60694D01*
X137665Y60792D01*
X137682Y60890D01*
X137703Y60988D01*
X137728Y61084D01*
X137756Y61179D01*
X137788Y61273D01*
X137823Y61366D01*
X137862Y61458D01*
X137905Y61548D01*
X137950Y61636D01*
X138000Y61723D01*
X138052Y61807D01*
X138108Y61890D01*
X138166Y61970D01*
X138228Y62048D01*
X138293Y62123D01*
X138361Y62196D01*
X138431Y62266D01*
X138504Y62334D01*
X138579Y62399D01*
X138657Y62461D01*
X138737Y62519D01*
X138820Y62575D01*
X138904Y62627D01*
X138991Y62677D01*
X139079Y62722D01*
X139169Y62765D01*
X139261Y62804D01*
X139353Y62839D01*
X139448Y62871D01*
X139543Y62899D01*
X139639Y62924D01*
X139737Y62945D01*
X139835Y62962D01*
X139933Y62975D01*
X140032Y62984D01*
X140132Y62990D01*
X140231Y62992D01*
X142828Y62992D01*
X147193Y60396D02*
X150438Y62992D01*
X150438Y51308D01*
X147193Y51308D02*
X153684Y51308D01*
D11*
X368300Y25400D02*
X622300Y25400D01*
X622300Y50800D01*
X368300Y50800D01*
X368300Y25400D01*
D15*
X394208Y54554D02*
X394208Y59746D01*
X394210Y59859D01*
X394216Y59972D01*
X394226Y60085D01*
X394240Y60198D01*
X394257Y60310D01*
X394279Y60421D01*
X394304Y60531D01*
X394334Y60641D01*
X394367Y60749D01*
X394404Y60856D01*
X394444Y60962D01*
X394489Y61066D01*
X394537Y61169D01*
X394588Y61270D01*
X394643Y61369D01*
X394701Y61466D01*
X394763Y61561D01*
X394828Y61654D01*
X394896Y61744D01*
X394967Y61832D01*
X395042Y61918D01*
X395119Y62001D01*
X395199Y62081D01*
X395282Y62158D01*
X395368Y62233D01*
X395456Y62304D01*
X395546Y62372D01*
X395639Y62437D01*
X395734Y62499D01*
X395831Y62557D01*
X395930Y62612D01*
X396031Y62663D01*
X396134Y62711D01*
X396238Y62756D01*
X396344Y62796D01*
X396451Y62833D01*
X396559Y62866D01*
X396669Y62896D01*
X396779Y62921D01*
X396890Y62943D01*
X397002Y62960D01*
X397115Y62974D01*
X397228Y62984D01*
X397341Y62990D01*
X397454Y62992D01*
X397567Y62990D01*
X397680Y62984D01*
X397793Y62974D01*
X397906Y62960D01*
X398018Y62943D01*
X398129Y62921D01*
X398239Y62896D01*
X398349Y62866D01*
X398457Y62833D01*
X398564Y62796D01*
X398670Y62756D01*
X398774Y62711D01*
X398877Y62663D01*
X398978Y62612D01*
X399077Y62557D01*
X399174Y62499D01*
X399269Y62437D01*
X399362Y62372D01*
X399452Y62304D01*
X399540Y62233D01*
X399626Y62158D01*
X399709Y62081D01*
X399789Y62001D01*
X399866Y61918D01*
X399941Y61832D01*
X400012Y61744D01*
X400080Y61654D01*
X400145Y61561D01*
X400207Y61466D01*
X400265Y61369D01*
X400320Y61270D01*
X400371Y61169D01*
X400419Y61066D01*
X400464Y60962D01*
X400504Y60856D01*
X400541Y60749D01*
X400574Y60641D01*
X400604Y60531D01*
X400629Y60421D01*
X400651Y60310D01*
X400668Y60198D01*
X400682Y60085D01*
X400692Y59972D01*
X400698Y59859D01*
X400700Y59746D01*
X400699Y59746D02*
X400699Y54554D01*
X400700Y54554D02*
X400698Y54441D01*
X400692Y54328D01*
X400682Y54215D01*
X400668Y54102D01*
X400651Y53990D01*
X400629Y53879D01*
X400604Y53769D01*
X400574Y53659D01*
X400541Y53551D01*
X400504Y53444D01*
X400464Y53338D01*
X400419Y53234D01*
X400371Y53131D01*
X400320Y53030D01*
X400265Y52931D01*
X400207Y52834D01*
X400145Y52739D01*
X400080Y52646D01*
X400012Y52556D01*
X399941Y52468D01*
X399866Y52382D01*
X399789Y52299D01*
X399709Y52219D01*
X399626Y52142D01*
X399540Y52067D01*
X399452Y51996D01*
X399362Y51928D01*
X399269Y51863D01*
X399174Y51801D01*
X399077Y51743D01*
X398978Y51688D01*
X398877Y51637D01*
X398774Y51589D01*
X398670Y51544D01*
X398564Y51504D01*
X398457Y51467D01*
X398349Y51434D01*
X398239Y51404D01*
X398129Y51379D01*
X398018Y51357D01*
X397906Y51340D01*
X397793Y51326D01*
X397680Y51316D01*
X397567Y51310D01*
X397454Y51308D01*
X397341Y51310D01*
X397228Y51316D01*
X397115Y51326D01*
X397002Y51340D01*
X396890Y51357D01*
X396779Y51379D01*
X396669Y51404D01*
X396559Y51434D01*
X396451Y51467D01*
X396344Y51504D01*
X396238Y51544D01*
X396134Y51589D01*
X396031Y51637D01*
X395930Y51688D01*
X395831Y51743D01*
X395734Y51801D01*
X395639Y51863D01*
X395546Y51928D01*
X395456Y51996D01*
X395368Y52067D01*
X395282Y52142D01*
X395199Y52219D01*
X395119Y52299D01*
X395042Y52382D01*
X394967Y52468D01*
X394896Y52556D01*
X394828Y52646D01*
X394763Y52739D01*
X394701Y52834D01*
X394643Y52931D01*
X394588Y53030D01*
X394537Y53131D01*
X394489Y53234D01*
X394444Y53338D01*
X394404Y53444D01*
X394367Y53551D01*
X394334Y53659D01*
X394304Y53769D01*
X394279Y53879D01*
X394257Y53990D01*
X394240Y54102D01*
X394226Y54215D01*
X394216Y54328D01*
X394210Y54441D01*
X394208Y54554D01*
X406188Y51308D02*
X406188Y62992D01*
X409434Y62992D01*
X409547Y62990D01*
X409660Y62984D01*
X409773Y62974D01*
X409886Y62960D01*
X409998Y62943D01*
X410109Y62921D01*
X410219Y62896D01*
X410329Y62866D01*
X410437Y62833D01*
X410544Y62796D01*
X410650Y62756D01*
X410754Y62711D01*
X410857Y62663D01*
X410958Y62612D01*
X411057Y62557D01*
X411154Y62499D01*
X411249Y62437D01*
X411342Y62372D01*
X411432Y62304D01*
X411520Y62233D01*
X411606Y62158D01*
X411689Y62081D01*
X411769Y62001D01*
X411846Y61918D01*
X411921Y61832D01*
X411992Y61744D01*
X412060Y61654D01*
X412125Y61561D01*
X412187Y61466D01*
X412245Y61369D01*
X412300Y61270D01*
X412351Y61169D01*
X412399Y61066D01*
X412444Y60962D01*
X412484Y60856D01*
X412521Y60749D01*
X412554Y60641D01*
X412584Y60531D01*
X412609Y60421D01*
X412631Y60310D01*
X412648Y60198D01*
X412662Y60085D01*
X412672Y59972D01*
X412678Y59859D01*
X412680Y59746D01*
X412678Y59633D01*
X412672Y59520D01*
X412662Y59407D01*
X412648Y59294D01*
X412631Y59182D01*
X412609Y59071D01*
X412584Y58961D01*
X412554Y58851D01*
X412521Y58743D01*
X412484Y58636D01*
X412444Y58530D01*
X412399Y58426D01*
X412351Y58323D01*
X412300Y58222D01*
X412245Y58123D01*
X412187Y58026D01*
X412125Y57931D01*
X412060Y57838D01*
X411992Y57748D01*
X411921Y57660D01*
X411846Y57574D01*
X411769Y57491D01*
X411689Y57411D01*
X411606Y57334D01*
X411520Y57259D01*
X411432Y57188D01*
X411342Y57120D01*
X411249Y57055D01*
X411154Y56993D01*
X411057Y56935D01*
X410958Y56880D01*
X410857Y56829D01*
X410754Y56781D01*
X410650Y56736D01*
X410544Y56696D01*
X410437Y56659D01*
X410329Y56626D01*
X410219Y56596D01*
X410109Y56571D01*
X409998Y56549D01*
X409886Y56532D01*
X409773Y56518D01*
X409660Y56508D01*
X409547Y56502D01*
X409434Y56500D01*
X409434Y56501D02*
X406188Y56501D01*
X419631Y51308D02*
X422228Y51308D01*
X419631Y51308D02*
X419532Y51310D01*
X419432Y51316D01*
X419333Y51325D01*
X419235Y51338D01*
X419137Y51355D01*
X419039Y51376D01*
X418943Y51401D01*
X418848Y51429D01*
X418754Y51461D01*
X418661Y51496D01*
X418569Y51535D01*
X418479Y51578D01*
X418391Y51623D01*
X418304Y51673D01*
X418220Y51725D01*
X418137Y51781D01*
X418057Y51839D01*
X417979Y51901D01*
X417904Y51966D01*
X417831Y52034D01*
X417761Y52104D01*
X417693Y52177D01*
X417628Y52252D01*
X417566Y52330D01*
X417508Y52410D01*
X417452Y52493D01*
X417400Y52577D01*
X417350Y52664D01*
X417305Y52752D01*
X417262Y52842D01*
X417223Y52934D01*
X417188Y53027D01*
X417156Y53121D01*
X417128Y53216D01*
X417103Y53312D01*
X417082Y53410D01*
X417065Y53508D01*
X417052Y53606D01*
X417043Y53705D01*
X417037Y53805D01*
X417035Y53904D01*
X417035Y60396D01*
X417037Y60495D01*
X417043Y60595D01*
X417052Y60694D01*
X417065Y60792D01*
X417082Y60890D01*
X417103Y60988D01*
X417128Y61084D01*
X417156Y61179D01*
X417188Y61273D01*
X417223Y61366D01*
X417262Y61458D01*
X417305Y61548D01*
X417350Y61636D01*
X417400Y61723D01*
X417452Y61807D01*
X417508Y61890D01*
X417566Y61970D01*
X417628Y62048D01*
X417693Y62123D01*
X417761Y62196D01*
X417831Y62266D01*
X417904Y62334D01*
X417979Y62399D01*
X418057Y62461D01*
X418137Y62519D01*
X418220Y62575D01*
X418304Y62627D01*
X418391Y62677D01*
X418479Y62722D01*
X418569Y62765D01*
X418661Y62804D01*
X418753Y62839D01*
X418848Y62871D01*
X418943Y62899D01*
X419039Y62924D01*
X419137Y62945D01*
X419235Y62962D01*
X419333Y62975D01*
X419432Y62984D01*
X419532Y62990D01*
X419631Y62992D01*
X422228Y62992D01*
X430163Y62992D02*
X430270Y62990D01*
X430376Y62984D01*
X430482Y62974D01*
X430588Y62961D01*
X430694Y62943D01*
X430798Y62922D01*
X430902Y62897D01*
X431005Y62868D01*
X431106Y62836D01*
X431206Y62799D01*
X431305Y62759D01*
X431403Y62716D01*
X431499Y62669D01*
X431593Y62618D01*
X431685Y62564D01*
X431775Y62507D01*
X431863Y62447D01*
X431948Y62383D01*
X432031Y62316D01*
X432112Y62246D01*
X432190Y62174D01*
X432266Y62098D01*
X432338Y62020D01*
X432408Y61939D01*
X432475Y61856D01*
X432539Y61771D01*
X432599Y61683D01*
X432656Y61593D01*
X432710Y61501D01*
X432761Y61407D01*
X432808Y61311D01*
X432851Y61213D01*
X432891Y61114D01*
X432928Y61014D01*
X432960Y60913D01*
X432989Y60810D01*
X433014Y60706D01*
X433035Y60602D01*
X433053Y60496D01*
X433066Y60390D01*
X433076Y60284D01*
X433082Y60178D01*
X433084Y60071D01*
X430163Y62992D02*
X430042Y62990D01*
X429921Y62984D01*
X429801Y62974D01*
X429680Y62961D01*
X429561Y62943D01*
X429441Y62922D01*
X429323Y62897D01*
X429206Y62868D01*
X429089Y62835D01*
X428974Y62799D01*
X428860Y62758D01*
X428747Y62715D01*
X428635Y62667D01*
X428526Y62616D01*
X428418Y62561D01*
X428311Y62503D01*
X428207Y62442D01*
X428105Y62377D01*
X428005Y62309D01*
X427907Y62238D01*
X427811Y62164D01*
X427718Y62087D01*
X427628Y62006D01*
X427540Y61923D01*
X427455Y61837D01*
X427372Y61748D01*
X427293Y61657D01*
X427216Y61563D01*
X427143Y61467D01*
X427073Y61369D01*
X427006Y61268D01*
X426942Y61165D01*
X426882Y61060D01*
X426825Y60953D01*
X426771Y60845D01*
X426721Y60735D01*
X426675Y60623D01*
X426632Y60510D01*
X426593Y60395D01*
X432111Y57799D02*
X432190Y57876D01*
X432266Y57957D01*
X432339Y58040D01*
X432409Y58125D01*
X432476Y58213D01*
X432540Y58303D01*
X432600Y58395D01*
X432657Y58490D01*
X432711Y58586D01*
X432762Y58684D01*
X432809Y58784D01*
X432853Y58886D01*
X432893Y58989D01*
X432929Y59093D01*
X432961Y59199D01*
X432990Y59305D01*
X433015Y59413D01*
X433037Y59521D01*
X433054Y59631D01*
X433068Y59740D01*
X433077Y59850D01*
X433083Y59961D01*
X433085Y60071D01*
X432110Y57799D02*
X426593Y51308D01*
X433084Y51308D01*
D11*
X266700Y381000D02*
X12700Y381000D01*
X12700Y355600D01*
X266700Y355600D01*
X266700Y381000D01*
D15*
X201916Y351846D02*
X201916Y346654D01*
X201916Y351846D02*
X201918Y351959D01*
X201924Y352072D01*
X201934Y352185D01*
X201948Y352298D01*
X201965Y352410D01*
X201987Y352521D01*
X202012Y352631D01*
X202042Y352741D01*
X202075Y352849D01*
X202112Y352956D01*
X202152Y353062D01*
X202197Y353166D01*
X202245Y353269D01*
X202296Y353370D01*
X202351Y353469D01*
X202409Y353566D01*
X202471Y353661D01*
X202536Y353754D01*
X202604Y353844D01*
X202675Y353932D01*
X202750Y354018D01*
X202827Y354101D01*
X202907Y354181D01*
X202990Y354258D01*
X203076Y354333D01*
X203164Y354404D01*
X203254Y354472D01*
X203347Y354537D01*
X203442Y354599D01*
X203539Y354657D01*
X203638Y354712D01*
X203739Y354763D01*
X203842Y354811D01*
X203946Y354856D01*
X204052Y354896D01*
X204159Y354933D01*
X204267Y354966D01*
X204377Y354996D01*
X204487Y355021D01*
X204598Y355043D01*
X204710Y355060D01*
X204823Y355074D01*
X204936Y355084D01*
X205049Y355090D01*
X205162Y355092D01*
X205275Y355090D01*
X205388Y355084D01*
X205501Y355074D01*
X205614Y355060D01*
X205726Y355043D01*
X205837Y355021D01*
X205947Y354996D01*
X206057Y354966D01*
X206165Y354933D01*
X206272Y354896D01*
X206378Y354856D01*
X206482Y354811D01*
X206585Y354763D01*
X206686Y354712D01*
X206785Y354657D01*
X206882Y354599D01*
X206977Y354537D01*
X207070Y354472D01*
X207160Y354404D01*
X207248Y354333D01*
X207334Y354258D01*
X207417Y354181D01*
X207497Y354101D01*
X207574Y354018D01*
X207649Y353932D01*
X207720Y353844D01*
X207788Y353754D01*
X207853Y353661D01*
X207915Y353566D01*
X207973Y353469D01*
X208028Y353370D01*
X208079Y353269D01*
X208127Y353166D01*
X208172Y353062D01*
X208212Y352956D01*
X208249Y352849D01*
X208282Y352741D01*
X208312Y352631D01*
X208337Y352521D01*
X208359Y352410D01*
X208376Y352298D01*
X208390Y352185D01*
X208400Y352072D01*
X208406Y351959D01*
X208408Y351846D01*
X208407Y351846D02*
X208407Y346654D01*
X208408Y346654D02*
X208406Y346541D01*
X208400Y346428D01*
X208390Y346315D01*
X208376Y346202D01*
X208359Y346090D01*
X208337Y345979D01*
X208312Y345869D01*
X208282Y345759D01*
X208249Y345651D01*
X208212Y345544D01*
X208172Y345438D01*
X208127Y345334D01*
X208079Y345231D01*
X208028Y345130D01*
X207973Y345031D01*
X207915Y344934D01*
X207853Y344839D01*
X207788Y344746D01*
X207720Y344656D01*
X207649Y344568D01*
X207574Y344482D01*
X207497Y344399D01*
X207417Y344319D01*
X207334Y344242D01*
X207248Y344167D01*
X207160Y344096D01*
X207070Y344028D01*
X206977Y343963D01*
X206882Y343901D01*
X206785Y343843D01*
X206686Y343788D01*
X206585Y343737D01*
X206482Y343689D01*
X206378Y343644D01*
X206272Y343604D01*
X206165Y343567D01*
X206057Y343534D01*
X205947Y343504D01*
X205837Y343479D01*
X205726Y343457D01*
X205614Y343440D01*
X205501Y343426D01*
X205388Y343416D01*
X205275Y343410D01*
X205162Y343408D01*
X205049Y343410D01*
X204936Y343416D01*
X204823Y343426D01*
X204710Y343440D01*
X204598Y343457D01*
X204487Y343479D01*
X204377Y343504D01*
X204267Y343534D01*
X204159Y343567D01*
X204052Y343604D01*
X203946Y343644D01*
X203842Y343689D01*
X203739Y343737D01*
X203638Y343788D01*
X203539Y343843D01*
X203442Y343901D01*
X203347Y343963D01*
X203254Y344028D01*
X203164Y344096D01*
X203076Y344167D01*
X202990Y344242D01*
X202907Y344319D01*
X202827Y344399D01*
X202750Y344482D01*
X202675Y344568D01*
X202604Y344656D01*
X202536Y344746D01*
X202471Y344839D01*
X202409Y344934D01*
X202351Y345031D01*
X202296Y345130D01*
X202245Y345231D01*
X202197Y345334D01*
X202152Y345438D01*
X202112Y345544D01*
X202075Y345651D01*
X202042Y345759D01*
X202012Y345869D01*
X201987Y345979D01*
X201965Y346090D01*
X201948Y346202D01*
X201934Y346315D01*
X201924Y346428D01*
X201918Y346541D01*
X201916Y346654D01*
X213896Y343408D02*
X213896Y355092D01*
X217142Y355092D01*
X217255Y355090D01*
X217368Y355084D01*
X217481Y355074D01*
X217594Y355060D01*
X217706Y355043D01*
X217817Y355021D01*
X217927Y354996D01*
X218037Y354966D01*
X218145Y354933D01*
X218252Y354896D01*
X218358Y354856D01*
X218462Y354811D01*
X218565Y354763D01*
X218666Y354712D01*
X218765Y354657D01*
X218862Y354599D01*
X218957Y354537D01*
X219050Y354472D01*
X219140Y354404D01*
X219228Y354333D01*
X219314Y354258D01*
X219397Y354181D01*
X219477Y354101D01*
X219554Y354018D01*
X219629Y353932D01*
X219700Y353844D01*
X219768Y353754D01*
X219833Y353661D01*
X219895Y353566D01*
X219953Y353469D01*
X220008Y353370D01*
X220059Y353269D01*
X220107Y353166D01*
X220152Y353062D01*
X220192Y352956D01*
X220229Y352849D01*
X220262Y352741D01*
X220292Y352631D01*
X220317Y352521D01*
X220339Y352410D01*
X220356Y352298D01*
X220370Y352185D01*
X220380Y352072D01*
X220386Y351959D01*
X220388Y351846D01*
X220386Y351733D01*
X220380Y351620D01*
X220370Y351507D01*
X220356Y351394D01*
X220339Y351282D01*
X220317Y351171D01*
X220292Y351061D01*
X220262Y350951D01*
X220229Y350843D01*
X220192Y350736D01*
X220152Y350630D01*
X220107Y350526D01*
X220059Y350423D01*
X220008Y350322D01*
X219953Y350223D01*
X219895Y350126D01*
X219833Y350031D01*
X219768Y349938D01*
X219700Y349848D01*
X219629Y349760D01*
X219554Y349674D01*
X219477Y349591D01*
X219397Y349511D01*
X219314Y349434D01*
X219228Y349359D01*
X219140Y349288D01*
X219050Y349220D01*
X218957Y349155D01*
X218862Y349093D01*
X218765Y349035D01*
X218666Y348980D01*
X218565Y348929D01*
X218462Y348881D01*
X218358Y348836D01*
X218252Y348796D01*
X218145Y348759D01*
X218037Y348726D01*
X217927Y348696D01*
X217817Y348671D01*
X217706Y348649D01*
X217594Y348632D01*
X217481Y348618D01*
X217368Y348608D01*
X217255Y348602D01*
X217142Y348600D01*
X217142Y348601D02*
X213896Y348601D01*
X227339Y343408D02*
X229936Y343408D01*
X227339Y343408D02*
X227240Y343410D01*
X227140Y343416D01*
X227041Y343425D01*
X226943Y343438D01*
X226845Y343455D01*
X226747Y343476D01*
X226651Y343501D01*
X226556Y343529D01*
X226462Y343561D01*
X226369Y343596D01*
X226277Y343635D01*
X226187Y343678D01*
X226099Y343723D01*
X226012Y343773D01*
X225928Y343825D01*
X225845Y343881D01*
X225765Y343939D01*
X225687Y344001D01*
X225612Y344066D01*
X225539Y344134D01*
X225469Y344204D01*
X225401Y344277D01*
X225336Y344352D01*
X225274Y344430D01*
X225216Y344510D01*
X225160Y344593D01*
X225108Y344677D01*
X225058Y344764D01*
X225013Y344852D01*
X224970Y344942D01*
X224931Y345034D01*
X224896Y345127D01*
X224864Y345221D01*
X224836Y345316D01*
X224811Y345412D01*
X224790Y345510D01*
X224773Y345608D01*
X224760Y345706D01*
X224751Y345805D01*
X224745Y345905D01*
X224743Y346004D01*
X224743Y352496D01*
X224745Y352595D01*
X224751Y352695D01*
X224760Y352794D01*
X224773Y352892D01*
X224790Y352990D01*
X224811Y353088D01*
X224836Y353184D01*
X224864Y353279D01*
X224896Y353373D01*
X224931Y353466D01*
X224970Y353558D01*
X225013Y353648D01*
X225058Y353736D01*
X225108Y353823D01*
X225160Y353907D01*
X225216Y353990D01*
X225274Y354070D01*
X225336Y354148D01*
X225401Y354223D01*
X225469Y354296D01*
X225539Y354366D01*
X225612Y354434D01*
X225687Y354499D01*
X225765Y354561D01*
X225845Y354619D01*
X225928Y354675D01*
X226012Y354727D01*
X226099Y354777D01*
X226187Y354822D01*
X226277Y354865D01*
X226369Y354904D01*
X226461Y354939D01*
X226556Y354971D01*
X226651Y354999D01*
X226747Y355024D01*
X226845Y355045D01*
X226943Y355062D01*
X227041Y355075D01*
X227140Y355084D01*
X227240Y355090D01*
X227339Y355092D01*
X229936Y355092D01*
X234301Y343408D02*
X237546Y343408D01*
X237659Y343410D01*
X237772Y343416D01*
X237885Y343426D01*
X237998Y343440D01*
X238110Y343457D01*
X238221Y343479D01*
X238331Y343504D01*
X238441Y343534D01*
X238549Y343567D01*
X238656Y343604D01*
X238762Y343644D01*
X238866Y343689D01*
X238969Y343737D01*
X239070Y343788D01*
X239169Y343843D01*
X239266Y343901D01*
X239361Y343963D01*
X239454Y344028D01*
X239544Y344096D01*
X239632Y344167D01*
X239718Y344242D01*
X239801Y344319D01*
X239881Y344399D01*
X239958Y344482D01*
X240033Y344568D01*
X240104Y344656D01*
X240172Y344746D01*
X240237Y344839D01*
X240299Y344934D01*
X240357Y345031D01*
X240412Y345130D01*
X240463Y345231D01*
X240511Y345334D01*
X240556Y345438D01*
X240596Y345544D01*
X240633Y345651D01*
X240666Y345759D01*
X240696Y345869D01*
X240721Y345979D01*
X240743Y346090D01*
X240760Y346202D01*
X240774Y346315D01*
X240784Y346428D01*
X240790Y346541D01*
X240792Y346654D01*
X240790Y346767D01*
X240784Y346880D01*
X240774Y346993D01*
X240760Y347106D01*
X240743Y347218D01*
X240721Y347329D01*
X240696Y347439D01*
X240666Y347549D01*
X240633Y347657D01*
X240596Y347764D01*
X240556Y347870D01*
X240511Y347974D01*
X240463Y348077D01*
X240412Y348178D01*
X240357Y348277D01*
X240299Y348374D01*
X240237Y348469D01*
X240172Y348562D01*
X240104Y348652D01*
X240033Y348740D01*
X239958Y348826D01*
X239881Y348909D01*
X239801Y348989D01*
X239718Y349066D01*
X239632Y349141D01*
X239544Y349212D01*
X239454Y349280D01*
X239361Y349345D01*
X239266Y349407D01*
X239169Y349465D01*
X239070Y349520D01*
X238969Y349571D01*
X238866Y349619D01*
X238762Y349664D01*
X238656Y349704D01*
X238549Y349741D01*
X238441Y349774D01*
X238331Y349804D01*
X238221Y349829D01*
X238110Y349851D01*
X237998Y349868D01*
X237885Y349882D01*
X237772Y349892D01*
X237659Y349898D01*
X237546Y349900D01*
X238196Y355092D02*
X234301Y355092D01*
X238196Y355092D02*
X238297Y355090D01*
X238397Y355084D01*
X238497Y355074D01*
X238597Y355061D01*
X238696Y355043D01*
X238795Y355022D01*
X238892Y354997D01*
X238989Y354968D01*
X239084Y354935D01*
X239178Y354899D01*
X239270Y354859D01*
X239361Y354816D01*
X239450Y354769D01*
X239537Y354719D01*
X239623Y354665D01*
X239706Y354608D01*
X239786Y354548D01*
X239865Y354485D01*
X239941Y354418D01*
X240014Y354349D01*
X240084Y354277D01*
X240152Y354203D01*
X240217Y354126D01*
X240278Y354046D01*
X240337Y353964D01*
X240392Y353880D01*
X240444Y353794D01*
X240493Y353706D01*
X240538Y353616D01*
X240580Y353524D01*
X240618Y353431D01*
X240652Y353336D01*
X240683Y353241D01*
X240710Y353144D01*
X240733Y353046D01*
X240753Y352947D01*
X240768Y352847D01*
X240780Y352747D01*
X240788Y352647D01*
X240792Y352546D01*
X240792Y352446D01*
X240788Y352345D01*
X240780Y352245D01*
X240768Y352145D01*
X240753Y352045D01*
X240733Y351946D01*
X240710Y351848D01*
X240683Y351751D01*
X240652Y351656D01*
X240618Y351561D01*
X240580Y351468D01*
X240538Y351376D01*
X240493Y351286D01*
X240444Y351198D01*
X240392Y351112D01*
X240337Y351028D01*
X240278Y350946D01*
X240217Y350866D01*
X240152Y350789D01*
X240084Y350715D01*
X240014Y350643D01*
X239941Y350574D01*
X239865Y350507D01*
X239786Y350444D01*
X239706Y350384D01*
X239623Y350327D01*
X239537Y350273D01*
X239450Y350223D01*
X239361Y350176D01*
X239270Y350133D01*
X239178Y350093D01*
X239084Y350057D01*
X238989Y350024D01*
X238892Y349995D01*
X238795Y349970D01*
X238696Y349949D01*
X238597Y349931D01*
X238497Y349918D01*
X238397Y349908D01*
X238297Y349902D01*
X238196Y349900D01*
X238196Y349899D02*
X235599Y349899D01*
D11*
X292100Y381000D02*
X546100Y381000D01*
X292100Y381000D02*
X292100Y355600D01*
X546100Y355600D01*
X546100Y381000D01*
D15*
X481316Y351846D02*
X481316Y346654D01*
X481316Y351846D02*
X481318Y351959D01*
X481324Y352072D01*
X481334Y352185D01*
X481348Y352298D01*
X481365Y352410D01*
X481387Y352521D01*
X481412Y352631D01*
X481442Y352741D01*
X481475Y352849D01*
X481512Y352956D01*
X481552Y353062D01*
X481597Y353166D01*
X481645Y353269D01*
X481696Y353370D01*
X481751Y353469D01*
X481809Y353566D01*
X481871Y353661D01*
X481936Y353754D01*
X482004Y353844D01*
X482075Y353932D01*
X482150Y354018D01*
X482227Y354101D01*
X482307Y354181D01*
X482390Y354258D01*
X482476Y354333D01*
X482564Y354404D01*
X482654Y354472D01*
X482747Y354537D01*
X482842Y354599D01*
X482939Y354657D01*
X483038Y354712D01*
X483139Y354763D01*
X483242Y354811D01*
X483346Y354856D01*
X483452Y354896D01*
X483559Y354933D01*
X483667Y354966D01*
X483777Y354996D01*
X483887Y355021D01*
X483998Y355043D01*
X484110Y355060D01*
X484223Y355074D01*
X484336Y355084D01*
X484449Y355090D01*
X484562Y355092D01*
X484675Y355090D01*
X484788Y355084D01*
X484901Y355074D01*
X485014Y355060D01*
X485126Y355043D01*
X485237Y355021D01*
X485347Y354996D01*
X485457Y354966D01*
X485565Y354933D01*
X485672Y354896D01*
X485778Y354856D01*
X485882Y354811D01*
X485985Y354763D01*
X486086Y354712D01*
X486185Y354657D01*
X486282Y354599D01*
X486377Y354537D01*
X486470Y354472D01*
X486560Y354404D01*
X486648Y354333D01*
X486734Y354258D01*
X486817Y354181D01*
X486897Y354101D01*
X486974Y354018D01*
X487049Y353932D01*
X487120Y353844D01*
X487188Y353754D01*
X487253Y353661D01*
X487315Y353566D01*
X487373Y353469D01*
X487428Y353370D01*
X487479Y353269D01*
X487527Y353166D01*
X487572Y353062D01*
X487612Y352956D01*
X487649Y352849D01*
X487682Y352741D01*
X487712Y352631D01*
X487737Y352521D01*
X487759Y352410D01*
X487776Y352298D01*
X487790Y352185D01*
X487800Y352072D01*
X487806Y351959D01*
X487808Y351846D01*
X487807Y351846D02*
X487807Y346654D01*
X487808Y346654D02*
X487806Y346541D01*
X487800Y346428D01*
X487790Y346315D01*
X487776Y346202D01*
X487759Y346090D01*
X487737Y345979D01*
X487712Y345869D01*
X487682Y345759D01*
X487649Y345651D01*
X487612Y345544D01*
X487572Y345438D01*
X487527Y345334D01*
X487479Y345231D01*
X487428Y345130D01*
X487373Y345031D01*
X487315Y344934D01*
X487253Y344839D01*
X487188Y344746D01*
X487120Y344656D01*
X487049Y344568D01*
X486974Y344482D01*
X486897Y344399D01*
X486817Y344319D01*
X486734Y344242D01*
X486648Y344167D01*
X486560Y344096D01*
X486470Y344028D01*
X486377Y343963D01*
X486282Y343901D01*
X486185Y343843D01*
X486086Y343788D01*
X485985Y343737D01*
X485882Y343689D01*
X485778Y343644D01*
X485672Y343604D01*
X485565Y343567D01*
X485457Y343534D01*
X485347Y343504D01*
X485237Y343479D01*
X485126Y343457D01*
X485014Y343440D01*
X484901Y343426D01*
X484788Y343416D01*
X484675Y343410D01*
X484562Y343408D01*
X484449Y343410D01*
X484336Y343416D01*
X484223Y343426D01*
X484110Y343440D01*
X483998Y343457D01*
X483887Y343479D01*
X483777Y343504D01*
X483667Y343534D01*
X483559Y343567D01*
X483452Y343604D01*
X483346Y343644D01*
X483242Y343689D01*
X483139Y343737D01*
X483038Y343788D01*
X482939Y343843D01*
X482842Y343901D01*
X482747Y343963D01*
X482654Y344028D01*
X482564Y344096D01*
X482476Y344167D01*
X482390Y344242D01*
X482307Y344319D01*
X482227Y344399D01*
X482150Y344482D01*
X482075Y344568D01*
X482004Y344656D01*
X481936Y344746D01*
X481871Y344839D01*
X481809Y344934D01*
X481751Y345031D01*
X481696Y345130D01*
X481645Y345231D01*
X481597Y345334D01*
X481552Y345438D01*
X481512Y345544D01*
X481475Y345651D01*
X481442Y345759D01*
X481412Y345869D01*
X481387Y345979D01*
X481365Y346090D01*
X481348Y346202D01*
X481334Y346315D01*
X481324Y346428D01*
X481318Y346541D01*
X481316Y346654D01*
X493296Y343408D02*
X493296Y355092D01*
X496542Y355092D01*
X496655Y355090D01*
X496768Y355084D01*
X496881Y355074D01*
X496994Y355060D01*
X497106Y355043D01*
X497217Y355021D01*
X497327Y354996D01*
X497437Y354966D01*
X497545Y354933D01*
X497652Y354896D01*
X497758Y354856D01*
X497862Y354811D01*
X497965Y354763D01*
X498066Y354712D01*
X498165Y354657D01*
X498262Y354599D01*
X498357Y354537D01*
X498450Y354472D01*
X498540Y354404D01*
X498628Y354333D01*
X498714Y354258D01*
X498797Y354181D01*
X498877Y354101D01*
X498954Y354018D01*
X499029Y353932D01*
X499100Y353844D01*
X499168Y353754D01*
X499233Y353661D01*
X499295Y353566D01*
X499353Y353469D01*
X499408Y353370D01*
X499459Y353269D01*
X499507Y353166D01*
X499552Y353062D01*
X499592Y352956D01*
X499629Y352849D01*
X499662Y352741D01*
X499692Y352631D01*
X499717Y352521D01*
X499739Y352410D01*
X499756Y352298D01*
X499770Y352185D01*
X499780Y352072D01*
X499786Y351959D01*
X499788Y351846D01*
X499786Y351733D01*
X499780Y351620D01*
X499770Y351507D01*
X499756Y351394D01*
X499739Y351282D01*
X499717Y351171D01*
X499692Y351061D01*
X499662Y350951D01*
X499629Y350843D01*
X499592Y350736D01*
X499552Y350630D01*
X499507Y350526D01*
X499459Y350423D01*
X499408Y350322D01*
X499353Y350223D01*
X499295Y350126D01*
X499233Y350031D01*
X499168Y349938D01*
X499100Y349848D01*
X499029Y349760D01*
X498954Y349674D01*
X498877Y349591D01*
X498797Y349511D01*
X498714Y349434D01*
X498628Y349359D01*
X498540Y349288D01*
X498450Y349220D01*
X498357Y349155D01*
X498262Y349093D01*
X498165Y349035D01*
X498066Y348980D01*
X497965Y348929D01*
X497862Y348881D01*
X497758Y348836D01*
X497652Y348796D01*
X497545Y348759D01*
X497437Y348726D01*
X497327Y348696D01*
X497217Y348671D01*
X497106Y348649D01*
X496994Y348632D01*
X496881Y348618D01*
X496768Y348608D01*
X496655Y348602D01*
X496542Y348600D01*
X496542Y348601D02*
X493296Y348601D01*
X506739Y343408D02*
X509336Y343408D01*
X506739Y343408D02*
X506640Y343410D01*
X506540Y343416D01*
X506441Y343425D01*
X506343Y343438D01*
X506245Y343455D01*
X506147Y343476D01*
X506051Y343501D01*
X505956Y343529D01*
X505862Y343561D01*
X505769Y343596D01*
X505677Y343635D01*
X505587Y343678D01*
X505499Y343723D01*
X505412Y343773D01*
X505328Y343825D01*
X505245Y343881D01*
X505165Y343939D01*
X505087Y344001D01*
X505012Y344066D01*
X504939Y344134D01*
X504869Y344204D01*
X504801Y344277D01*
X504736Y344352D01*
X504674Y344430D01*
X504616Y344510D01*
X504560Y344593D01*
X504508Y344677D01*
X504458Y344764D01*
X504413Y344852D01*
X504370Y344942D01*
X504331Y345034D01*
X504296Y345127D01*
X504264Y345221D01*
X504236Y345316D01*
X504211Y345412D01*
X504190Y345510D01*
X504173Y345608D01*
X504160Y345706D01*
X504151Y345805D01*
X504145Y345905D01*
X504143Y346004D01*
X504143Y352496D01*
X504145Y352595D01*
X504151Y352695D01*
X504160Y352794D01*
X504173Y352892D01*
X504190Y352990D01*
X504211Y353088D01*
X504236Y353184D01*
X504264Y353279D01*
X504296Y353373D01*
X504331Y353466D01*
X504370Y353558D01*
X504413Y353648D01*
X504458Y353736D01*
X504508Y353823D01*
X504560Y353907D01*
X504616Y353990D01*
X504674Y354070D01*
X504736Y354148D01*
X504801Y354223D01*
X504869Y354296D01*
X504939Y354366D01*
X505012Y354434D01*
X505087Y354499D01*
X505165Y354561D01*
X505245Y354619D01*
X505328Y354675D01*
X505412Y354727D01*
X505499Y354777D01*
X505587Y354822D01*
X505677Y354865D01*
X505769Y354904D01*
X505861Y354939D01*
X505956Y354971D01*
X506051Y354999D01*
X506147Y355024D01*
X506245Y355045D01*
X506343Y355062D01*
X506441Y355075D01*
X506540Y355084D01*
X506640Y355090D01*
X506739Y355092D01*
X509336Y355092D01*
X516297Y355092D02*
X513701Y346004D01*
X520192Y346004D01*
X518245Y348601D02*
X518245Y343408D01*
D11*
X241300Y292100D02*
X88900Y292100D01*
X88900Y317500D01*
X241300Y317500D01*
X241300Y292100D01*
D15*
X202371Y291592D02*
X202371Y279908D01*
X202371Y291592D02*
X205616Y291592D01*
X205729Y291590D01*
X205842Y291584D01*
X205955Y291574D01*
X206068Y291560D01*
X206180Y291543D01*
X206291Y291521D01*
X206401Y291496D01*
X206511Y291466D01*
X206619Y291433D01*
X206726Y291396D01*
X206832Y291356D01*
X206936Y291311D01*
X207039Y291263D01*
X207140Y291212D01*
X207239Y291157D01*
X207336Y291099D01*
X207431Y291037D01*
X207524Y290972D01*
X207614Y290904D01*
X207702Y290833D01*
X207788Y290758D01*
X207871Y290681D01*
X207951Y290601D01*
X208028Y290518D01*
X208103Y290432D01*
X208174Y290344D01*
X208242Y290254D01*
X208307Y290161D01*
X208369Y290066D01*
X208427Y289969D01*
X208482Y289870D01*
X208533Y289769D01*
X208581Y289666D01*
X208626Y289562D01*
X208666Y289456D01*
X208703Y289349D01*
X208736Y289241D01*
X208766Y289131D01*
X208791Y289021D01*
X208813Y288910D01*
X208830Y288798D01*
X208844Y288685D01*
X208854Y288572D01*
X208860Y288459D01*
X208862Y288346D01*
X208860Y288233D01*
X208854Y288120D01*
X208844Y288007D01*
X208830Y287894D01*
X208813Y287782D01*
X208791Y287671D01*
X208766Y287561D01*
X208736Y287451D01*
X208703Y287343D01*
X208666Y287236D01*
X208626Y287130D01*
X208581Y287026D01*
X208533Y286923D01*
X208482Y286822D01*
X208427Y286723D01*
X208369Y286626D01*
X208307Y286531D01*
X208242Y286438D01*
X208174Y286348D01*
X208103Y286260D01*
X208028Y286174D01*
X207951Y286091D01*
X207871Y286011D01*
X207788Y285934D01*
X207702Y285859D01*
X207614Y285788D01*
X207524Y285720D01*
X207431Y285655D01*
X207336Y285593D01*
X207239Y285535D01*
X207140Y285480D01*
X207039Y285429D01*
X206936Y285381D01*
X206832Y285336D01*
X206726Y285296D01*
X206619Y285259D01*
X206511Y285226D01*
X206401Y285196D01*
X206291Y285171D01*
X206180Y285149D01*
X206068Y285132D01*
X205955Y285118D01*
X205842Y285108D01*
X205729Y285102D01*
X205616Y285100D01*
X205616Y285101D02*
X202371Y285101D01*
X206265Y285101D02*
X208862Y279908D01*
X213727Y288996D02*
X216972Y291592D01*
X216972Y279908D01*
X213727Y279908D02*
X220218Y279908D01*
X224663Y278610D02*
X229856Y278610D01*
X234301Y288996D02*
X237546Y291592D01*
X237546Y279908D01*
X234301Y279908D02*
X240792Y279908D01*
D11*
X342900Y292100D02*
X495300Y292100D01*
X342900Y292100D02*
X342900Y317500D01*
X495300Y317500D01*
X495300Y292100D01*
D15*
X476490Y291592D02*
X476490Y279908D01*
X482981Y279908D02*
X476490Y291592D01*
X482981Y291592D02*
X482981Y279908D01*
X488301Y279908D02*
X491546Y279908D01*
X491659Y279910D01*
X491772Y279916D01*
X491885Y279926D01*
X491998Y279940D01*
X492110Y279957D01*
X492221Y279979D01*
X492331Y280004D01*
X492441Y280034D01*
X492549Y280067D01*
X492656Y280104D01*
X492762Y280144D01*
X492866Y280189D01*
X492969Y280237D01*
X493070Y280288D01*
X493169Y280343D01*
X493266Y280401D01*
X493361Y280463D01*
X493454Y280528D01*
X493544Y280596D01*
X493632Y280667D01*
X493718Y280742D01*
X493801Y280819D01*
X493881Y280899D01*
X493958Y280982D01*
X494033Y281068D01*
X494104Y281156D01*
X494172Y281246D01*
X494237Y281339D01*
X494299Y281434D01*
X494357Y281531D01*
X494412Y281630D01*
X494463Y281731D01*
X494511Y281834D01*
X494556Y281938D01*
X494596Y282044D01*
X494633Y282151D01*
X494666Y282259D01*
X494696Y282369D01*
X494721Y282479D01*
X494743Y282590D01*
X494760Y282702D01*
X494774Y282815D01*
X494784Y282928D01*
X494790Y283041D01*
X494792Y283154D01*
X494790Y283267D01*
X494784Y283380D01*
X494774Y283493D01*
X494760Y283606D01*
X494743Y283718D01*
X494721Y283829D01*
X494696Y283939D01*
X494666Y284049D01*
X494633Y284157D01*
X494596Y284264D01*
X494556Y284370D01*
X494511Y284474D01*
X494463Y284577D01*
X494412Y284678D01*
X494357Y284777D01*
X494299Y284874D01*
X494237Y284969D01*
X494172Y285062D01*
X494104Y285152D01*
X494033Y285240D01*
X493958Y285326D01*
X493881Y285409D01*
X493801Y285489D01*
X493718Y285566D01*
X493632Y285641D01*
X493544Y285712D01*
X493454Y285780D01*
X493361Y285845D01*
X493266Y285907D01*
X493169Y285965D01*
X493070Y286020D01*
X492969Y286071D01*
X492866Y286119D01*
X492762Y286164D01*
X492656Y286204D01*
X492549Y286241D01*
X492441Y286274D01*
X492331Y286304D01*
X492221Y286329D01*
X492110Y286351D01*
X491998Y286368D01*
X491885Y286382D01*
X491772Y286392D01*
X491659Y286398D01*
X491546Y286400D01*
X492196Y291592D02*
X488301Y291592D01*
X492196Y291592D02*
X492297Y291590D01*
X492397Y291584D01*
X492497Y291574D01*
X492597Y291561D01*
X492696Y291543D01*
X492795Y291522D01*
X492892Y291497D01*
X492989Y291468D01*
X493084Y291435D01*
X493178Y291399D01*
X493270Y291359D01*
X493361Y291316D01*
X493450Y291269D01*
X493537Y291219D01*
X493623Y291165D01*
X493706Y291108D01*
X493786Y291048D01*
X493865Y290985D01*
X493941Y290918D01*
X494014Y290849D01*
X494084Y290777D01*
X494152Y290703D01*
X494217Y290626D01*
X494278Y290546D01*
X494337Y290464D01*
X494392Y290380D01*
X494444Y290294D01*
X494493Y290206D01*
X494538Y290116D01*
X494580Y290024D01*
X494618Y289931D01*
X494652Y289836D01*
X494683Y289741D01*
X494710Y289644D01*
X494733Y289546D01*
X494753Y289447D01*
X494768Y289347D01*
X494780Y289247D01*
X494788Y289147D01*
X494792Y289046D01*
X494792Y288946D01*
X494788Y288845D01*
X494780Y288745D01*
X494768Y288645D01*
X494753Y288545D01*
X494733Y288446D01*
X494710Y288348D01*
X494683Y288251D01*
X494652Y288156D01*
X494618Y288061D01*
X494580Y287968D01*
X494538Y287876D01*
X494493Y287786D01*
X494444Y287698D01*
X494392Y287612D01*
X494337Y287528D01*
X494278Y287446D01*
X494217Y287366D01*
X494152Y287289D01*
X494084Y287215D01*
X494014Y287143D01*
X493941Y287074D01*
X493865Y287007D01*
X493786Y286944D01*
X493706Y286884D01*
X493623Y286827D01*
X493537Y286773D01*
X493450Y286723D01*
X493361Y286676D01*
X493270Y286633D01*
X493178Y286593D01*
X493084Y286557D01*
X492989Y286524D01*
X492892Y286495D01*
X492795Y286470D01*
X492696Y286449D01*
X492597Y286431D01*
X492497Y286418D01*
X492397Y286408D01*
X492297Y286402D01*
X492196Y286400D01*
X492196Y286399D02*
X489599Y286399D01*
D11*
X596900Y292100D02*
X596900Y393700D01*
X622300Y393700D01*
X622300Y292100D01*
X596900Y292100D01*
D15*
X596392Y296503D02*
X596390Y296602D01*
X596384Y296702D01*
X596375Y296801D01*
X596362Y296899D01*
X596345Y296997D01*
X596324Y297095D01*
X596299Y297191D01*
X596271Y297286D01*
X596239Y297380D01*
X596204Y297473D01*
X596165Y297565D01*
X596122Y297655D01*
X596077Y297743D01*
X596027Y297830D01*
X595975Y297914D01*
X595919Y297997D01*
X595861Y298077D01*
X595799Y298155D01*
X595734Y298230D01*
X595666Y298303D01*
X595596Y298373D01*
X595523Y298441D01*
X595448Y298506D01*
X595370Y298568D01*
X595290Y298626D01*
X595207Y298682D01*
X595123Y298734D01*
X595036Y298784D01*
X594948Y298829D01*
X594858Y298872D01*
X594766Y298911D01*
X594673Y298946D01*
X594579Y298978D01*
X594484Y299006D01*
X594388Y299031D01*
X594290Y299052D01*
X594192Y299069D01*
X594094Y299082D01*
X593995Y299091D01*
X593895Y299097D01*
X593796Y299099D01*
X596392Y296503D02*
X596390Y296359D01*
X596384Y296214D01*
X596375Y296070D01*
X596362Y295927D01*
X596345Y295783D01*
X596324Y295640D01*
X596299Y295498D01*
X596271Y295357D01*
X596239Y295216D01*
X596203Y295076D01*
X596164Y294937D01*
X596121Y294799D01*
X596074Y294663D01*
X596024Y294527D01*
X595970Y294393D01*
X595913Y294261D01*
X595852Y294130D01*
X595788Y294001D01*
X595720Y293873D01*
X595650Y293747D01*
X595575Y293623D01*
X595498Y293502D01*
X595417Y293382D01*
X595334Y293264D01*
X595247Y293149D01*
X595157Y293036D01*
X595064Y292925D01*
X594969Y292817D01*
X594870Y292711D01*
X594769Y292608D01*
X587304Y292933D02*
X587205Y292935D01*
X587105Y292941D01*
X587006Y292950D01*
X586908Y292963D01*
X586810Y292980D01*
X586712Y293001D01*
X586616Y293026D01*
X586521Y293054D01*
X586427Y293086D01*
X586334Y293121D01*
X586242Y293160D01*
X586152Y293203D01*
X586064Y293248D01*
X585977Y293298D01*
X585893Y293350D01*
X585810Y293406D01*
X585730Y293464D01*
X585652Y293526D01*
X585577Y293591D01*
X585504Y293659D01*
X585434Y293729D01*
X585366Y293802D01*
X585301Y293877D01*
X585239Y293955D01*
X585181Y294035D01*
X585125Y294118D01*
X585073Y294202D01*
X585023Y294289D01*
X584978Y294377D01*
X584935Y294467D01*
X584896Y294559D01*
X584861Y294652D01*
X584829Y294746D01*
X584801Y294841D01*
X584776Y294937D01*
X584755Y295035D01*
X584738Y295133D01*
X584725Y295231D01*
X584716Y295330D01*
X584710Y295430D01*
X584708Y295529D01*
X584710Y295665D01*
X584716Y295801D01*
X584725Y295937D01*
X584738Y296073D01*
X584756Y296208D01*
X584776Y296342D01*
X584801Y296476D01*
X584829Y296610D01*
X584862Y296742D01*
X584897Y296873D01*
X584937Y297004D01*
X584980Y297133D01*
X585026Y297261D01*
X585077Y297387D01*
X585130Y297513D01*
X585188Y297636D01*
X585248Y297758D01*
X585312Y297878D01*
X585380Y297997D01*
X585450Y298113D01*
X585524Y298227D01*
X585601Y298340D01*
X585682Y298450D01*
X589576Y294231D02*
X589523Y294145D01*
X589466Y294061D01*
X589407Y293979D01*
X589344Y293899D01*
X589278Y293822D01*
X589210Y293747D01*
X589138Y293675D01*
X589064Y293606D01*
X588987Y293540D01*
X588908Y293477D01*
X588826Y293417D01*
X588742Y293360D01*
X588656Y293306D01*
X588568Y293256D01*
X588478Y293209D01*
X588387Y293165D01*
X588293Y293126D01*
X588199Y293089D01*
X588103Y293057D01*
X588005Y293028D01*
X587907Y293003D01*
X587808Y292982D01*
X587708Y292964D01*
X587608Y292951D01*
X587507Y292941D01*
X587405Y292935D01*
X587304Y292933D01*
X591524Y297801D02*
X591577Y297887D01*
X591634Y297971D01*
X591693Y298053D01*
X591756Y298133D01*
X591822Y298210D01*
X591890Y298285D01*
X591962Y298357D01*
X592036Y298426D01*
X592113Y298492D01*
X592192Y298555D01*
X592274Y298615D01*
X592358Y298672D01*
X592444Y298726D01*
X592532Y298776D01*
X592622Y298823D01*
X592713Y298867D01*
X592807Y298906D01*
X592901Y298943D01*
X592997Y298975D01*
X593095Y299004D01*
X593193Y299029D01*
X593292Y299050D01*
X593392Y299068D01*
X593492Y299081D01*
X593593Y299091D01*
X593695Y299097D01*
X593796Y299099D01*
X591524Y297801D02*
X589576Y294231D01*
X584708Y304207D02*
X596392Y304207D01*
X584708Y304207D02*
X584708Y307453D01*
X584710Y307566D01*
X584716Y307679D01*
X584726Y307792D01*
X584740Y307905D01*
X584757Y308017D01*
X584779Y308128D01*
X584804Y308238D01*
X584834Y308348D01*
X584867Y308456D01*
X584904Y308563D01*
X584944Y308669D01*
X584989Y308773D01*
X585037Y308876D01*
X585088Y308977D01*
X585143Y309076D01*
X585201Y309173D01*
X585263Y309268D01*
X585328Y309361D01*
X585396Y309451D01*
X585467Y309539D01*
X585542Y309625D01*
X585619Y309708D01*
X585699Y309788D01*
X585782Y309865D01*
X585868Y309940D01*
X585956Y310011D01*
X586046Y310079D01*
X586139Y310144D01*
X586234Y310206D01*
X586331Y310264D01*
X586430Y310319D01*
X586531Y310370D01*
X586634Y310418D01*
X586738Y310463D01*
X586844Y310503D01*
X586951Y310540D01*
X587059Y310573D01*
X587169Y310603D01*
X587279Y310628D01*
X587390Y310650D01*
X587502Y310667D01*
X587615Y310681D01*
X587728Y310691D01*
X587841Y310697D01*
X587954Y310699D01*
X588067Y310697D01*
X588180Y310691D01*
X588293Y310681D01*
X588406Y310667D01*
X588518Y310650D01*
X588629Y310628D01*
X588739Y310603D01*
X588849Y310573D01*
X588957Y310540D01*
X589064Y310503D01*
X589170Y310463D01*
X589274Y310418D01*
X589377Y310370D01*
X589478Y310319D01*
X589577Y310264D01*
X589674Y310206D01*
X589769Y310144D01*
X589862Y310079D01*
X589952Y310011D01*
X590040Y309940D01*
X590126Y309865D01*
X590209Y309788D01*
X590289Y309708D01*
X590366Y309625D01*
X590441Y309539D01*
X590512Y309451D01*
X590580Y309361D01*
X590645Y309268D01*
X590707Y309173D01*
X590765Y309076D01*
X590820Y308977D01*
X590871Y308876D01*
X590919Y308773D01*
X590964Y308669D01*
X591004Y308563D01*
X591041Y308456D01*
X591074Y308348D01*
X591104Y308238D01*
X591129Y308128D01*
X591151Y308017D01*
X591168Y307905D01*
X591182Y307792D01*
X591192Y307679D01*
X591198Y307566D01*
X591200Y307453D01*
X591199Y307453D02*
X591199Y304207D01*
X596392Y318601D02*
X596390Y318700D01*
X596384Y318800D01*
X596375Y318899D01*
X596362Y318997D01*
X596345Y319095D01*
X596324Y319193D01*
X596299Y319289D01*
X596271Y319384D01*
X596239Y319478D01*
X596204Y319571D01*
X596165Y319663D01*
X596122Y319753D01*
X596077Y319841D01*
X596027Y319928D01*
X595975Y320012D01*
X595919Y320095D01*
X595861Y320175D01*
X595799Y320253D01*
X595734Y320328D01*
X595666Y320401D01*
X595596Y320471D01*
X595523Y320539D01*
X595448Y320604D01*
X595370Y320666D01*
X595290Y320724D01*
X595207Y320780D01*
X595123Y320832D01*
X595036Y320882D01*
X594948Y320927D01*
X594858Y320970D01*
X594766Y321009D01*
X594673Y321044D01*
X594579Y321076D01*
X594484Y321104D01*
X594388Y321129D01*
X594290Y321150D01*
X594192Y321167D01*
X594094Y321180D01*
X593995Y321189D01*
X593895Y321195D01*
X593796Y321197D01*
X596392Y318601D02*
X596390Y318457D01*
X596384Y318312D01*
X596375Y318168D01*
X596362Y318025D01*
X596345Y317881D01*
X596324Y317738D01*
X596299Y317596D01*
X596271Y317455D01*
X596239Y317314D01*
X596203Y317174D01*
X596164Y317035D01*
X596121Y316897D01*
X596074Y316761D01*
X596024Y316625D01*
X595970Y316491D01*
X595913Y316359D01*
X595852Y316228D01*
X595788Y316099D01*
X595720Y315971D01*
X595650Y315845D01*
X595575Y315721D01*
X595498Y315600D01*
X595417Y315480D01*
X595334Y315362D01*
X595247Y315247D01*
X595157Y315134D01*
X595064Y315023D01*
X594969Y314915D01*
X594870Y314809D01*
X594769Y314706D01*
X587304Y315031D02*
X587205Y315033D01*
X587105Y315039D01*
X587006Y315048D01*
X586908Y315061D01*
X586810Y315078D01*
X586712Y315099D01*
X586616Y315124D01*
X586521Y315152D01*
X586427Y315184D01*
X586334Y315219D01*
X586242Y315258D01*
X586152Y315301D01*
X586064Y315346D01*
X585977Y315396D01*
X585893Y315448D01*
X585810Y315504D01*
X585730Y315562D01*
X585652Y315624D01*
X585577Y315689D01*
X585504Y315757D01*
X585434Y315827D01*
X585366Y315900D01*
X585301Y315975D01*
X585239Y316053D01*
X585181Y316133D01*
X585125Y316216D01*
X585073Y316300D01*
X585023Y316387D01*
X584978Y316475D01*
X584935Y316565D01*
X584896Y316657D01*
X584861Y316750D01*
X584829Y316844D01*
X584801Y316939D01*
X584776Y317035D01*
X584755Y317133D01*
X584738Y317231D01*
X584725Y317329D01*
X584716Y317428D01*
X584710Y317528D01*
X584708Y317627D01*
X584710Y317763D01*
X584716Y317899D01*
X584725Y318035D01*
X584738Y318171D01*
X584756Y318306D01*
X584776Y318440D01*
X584801Y318574D01*
X584829Y318708D01*
X584862Y318840D01*
X584897Y318971D01*
X584937Y319102D01*
X584980Y319231D01*
X585026Y319359D01*
X585077Y319485D01*
X585130Y319611D01*
X585188Y319734D01*
X585248Y319856D01*
X585312Y319976D01*
X585380Y320095D01*
X585450Y320211D01*
X585524Y320325D01*
X585601Y320438D01*
X585682Y320548D01*
X589576Y316328D02*
X589523Y316242D01*
X589466Y316158D01*
X589407Y316076D01*
X589344Y315996D01*
X589278Y315919D01*
X589210Y315844D01*
X589138Y315772D01*
X589064Y315703D01*
X588987Y315637D01*
X588908Y315574D01*
X588826Y315514D01*
X588742Y315457D01*
X588656Y315403D01*
X588568Y315353D01*
X588478Y315306D01*
X588387Y315262D01*
X588293Y315223D01*
X588199Y315186D01*
X588103Y315154D01*
X588005Y315125D01*
X587907Y315100D01*
X587808Y315079D01*
X587708Y315061D01*
X587608Y315048D01*
X587507Y315038D01*
X587405Y315032D01*
X587304Y315030D01*
X591524Y319899D02*
X591577Y319985D01*
X591634Y320069D01*
X591693Y320151D01*
X591756Y320231D01*
X591822Y320308D01*
X591890Y320383D01*
X591962Y320455D01*
X592036Y320524D01*
X592113Y320590D01*
X592192Y320653D01*
X592274Y320713D01*
X592358Y320770D01*
X592444Y320824D01*
X592532Y320874D01*
X592622Y320921D01*
X592713Y320965D01*
X592807Y321004D01*
X592901Y321041D01*
X592997Y321073D01*
X593095Y321102D01*
X593193Y321127D01*
X593292Y321148D01*
X593392Y321166D01*
X593492Y321179D01*
X593593Y321189D01*
X593695Y321195D01*
X593796Y321197D01*
X591524Y319899D02*
X589576Y316329D01*
X596392Y325755D02*
X596392Y329000D01*
X596390Y329113D01*
X596384Y329226D01*
X596374Y329339D01*
X596360Y329452D01*
X596343Y329564D01*
X596321Y329675D01*
X596296Y329785D01*
X596266Y329895D01*
X596233Y330003D01*
X596196Y330110D01*
X596156Y330216D01*
X596111Y330320D01*
X596063Y330423D01*
X596012Y330524D01*
X595957Y330623D01*
X595899Y330720D01*
X595837Y330815D01*
X595772Y330908D01*
X595704Y330998D01*
X595633Y331086D01*
X595558Y331172D01*
X595481Y331255D01*
X595401Y331335D01*
X595318Y331412D01*
X595232Y331487D01*
X595144Y331558D01*
X595054Y331626D01*
X594961Y331691D01*
X594866Y331753D01*
X594769Y331811D01*
X594670Y331866D01*
X594569Y331917D01*
X594466Y331965D01*
X594362Y332010D01*
X594256Y332050D01*
X594149Y332087D01*
X594041Y332120D01*
X593931Y332150D01*
X593821Y332175D01*
X593710Y332197D01*
X593598Y332214D01*
X593485Y332228D01*
X593372Y332238D01*
X593259Y332244D01*
X593146Y332246D01*
X593033Y332244D01*
X592920Y332238D01*
X592807Y332228D01*
X592694Y332214D01*
X592582Y332197D01*
X592471Y332175D01*
X592361Y332150D01*
X592251Y332120D01*
X592143Y332087D01*
X592036Y332050D01*
X591930Y332010D01*
X591826Y331965D01*
X591723Y331917D01*
X591622Y331866D01*
X591523Y331811D01*
X591426Y331753D01*
X591331Y331691D01*
X591238Y331626D01*
X591148Y331558D01*
X591060Y331487D01*
X590974Y331412D01*
X590891Y331335D01*
X590811Y331255D01*
X590734Y331172D01*
X590659Y331086D01*
X590588Y330998D01*
X590520Y330908D01*
X590455Y330815D01*
X590393Y330720D01*
X590335Y330623D01*
X590280Y330524D01*
X590229Y330423D01*
X590181Y330320D01*
X590136Y330216D01*
X590096Y330110D01*
X590059Y330003D01*
X590026Y329895D01*
X589996Y329785D01*
X589971Y329675D01*
X589949Y329564D01*
X589932Y329452D01*
X589918Y329339D01*
X589908Y329226D01*
X589902Y329113D01*
X589900Y329000D01*
X584708Y329650D02*
X584708Y325755D01*
X584708Y329650D02*
X584710Y329751D01*
X584716Y329851D01*
X584726Y329951D01*
X584739Y330051D01*
X584757Y330150D01*
X584778Y330249D01*
X584803Y330346D01*
X584832Y330443D01*
X584865Y330538D01*
X584901Y330632D01*
X584941Y330724D01*
X584984Y330815D01*
X585031Y330904D01*
X585081Y330991D01*
X585135Y331077D01*
X585192Y331160D01*
X585252Y331240D01*
X585315Y331319D01*
X585382Y331395D01*
X585451Y331468D01*
X585523Y331538D01*
X585597Y331606D01*
X585674Y331671D01*
X585754Y331732D01*
X585836Y331791D01*
X585920Y331846D01*
X586006Y331898D01*
X586094Y331947D01*
X586184Y331992D01*
X586276Y332034D01*
X586369Y332072D01*
X586464Y332106D01*
X586559Y332137D01*
X586656Y332164D01*
X586754Y332187D01*
X586853Y332207D01*
X586953Y332222D01*
X587053Y332234D01*
X587153Y332242D01*
X587254Y332246D01*
X587354Y332246D01*
X587455Y332242D01*
X587555Y332234D01*
X587655Y332222D01*
X587755Y332207D01*
X587854Y332187D01*
X587952Y332164D01*
X588049Y332137D01*
X588144Y332106D01*
X588239Y332072D01*
X588332Y332034D01*
X588424Y331992D01*
X588514Y331947D01*
X588602Y331898D01*
X588688Y331846D01*
X588772Y331791D01*
X588854Y331732D01*
X588934Y331671D01*
X589011Y331606D01*
X589085Y331538D01*
X589157Y331468D01*
X589226Y331395D01*
X589293Y331319D01*
X589356Y331240D01*
X589416Y331160D01*
X589473Y331077D01*
X589527Y330991D01*
X589577Y330904D01*
X589624Y330815D01*
X589667Y330724D01*
X589707Y330632D01*
X589743Y330538D01*
X589776Y330443D01*
X589805Y330346D01*
X589830Y330249D01*
X589851Y330150D01*
X589869Y330051D01*
X589882Y329951D01*
X589892Y329851D01*
X589898Y329751D01*
X589900Y329650D01*
X589901Y329650D02*
X589901Y327053D01*
X590550Y337185D02*
X590320Y337188D01*
X590090Y337196D01*
X589861Y337210D01*
X589632Y337229D01*
X589403Y337254D01*
X589175Y337284D01*
X588948Y337319D01*
X588722Y337360D01*
X588497Y337406D01*
X588273Y337458D01*
X588050Y337515D01*
X587829Y337577D01*
X587609Y337645D01*
X587391Y337718D01*
X587175Y337796D01*
X586961Y337879D01*
X586749Y337967D01*
X586538Y338060D01*
X586331Y338159D01*
X586331Y338158D02*
X586241Y338191D01*
X586152Y338227D01*
X586064Y338267D01*
X585979Y338311D01*
X585895Y338358D01*
X585813Y338408D01*
X585733Y338462D01*
X585656Y338518D01*
X585580Y338578D01*
X585507Y338641D01*
X585437Y338706D01*
X585369Y338775D01*
X585305Y338846D01*
X585243Y338919D01*
X585184Y338995D01*
X585128Y339073D01*
X585075Y339154D01*
X585026Y339236D01*
X584980Y339320D01*
X584937Y339407D01*
X584898Y339494D01*
X584862Y339584D01*
X584830Y339674D01*
X584802Y339766D01*
X584777Y339859D01*
X584756Y339953D01*
X584739Y340047D01*
X584725Y340142D01*
X584716Y340238D01*
X584710Y340334D01*
X584708Y340430D01*
X584710Y340526D01*
X584716Y340622D01*
X584725Y340718D01*
X584739Y340813D01*
X584756Y340907D01*
X584777Y341001D01*
X584802Y341094D01*
X584830Y341186D01*
X584862Y341276D01*
X584898Y341366D01*
X584937Y341454D01*
X584980Y341540D01*
X585026Y341624D01*
X585075Y341706D01*
X585128Y341787D01*
X585184Y341865D01*
X585243Y341941D01*
X585305Y342014D01*
X585369Y342085D01*
X585437Y342154D01*
X585507Y342219D01*
X585580Y342282D01*
X585656Y342342D01*
X585733Y342398D01*
X585813Y342452D01*
X585895Y342502D01*
X585979Y342549D01*
X586064Y342593D01*
X586152Y342633D01*
X586241Y342669D01*
X586331Y342702D01*
X586538Y342801D01*
X586749Y342894D01*
X586961Y342982D01*
X587175Y343065D01*
X587391Y343143D01*
X587609Y343216D01*
X587829Y343284D01*
X588050Y343346D01*
X588273Y343403D01*
X588497Y343455D01*
X588722Y343501D01*
X588948Y343542D01*
X589175Y343577D01*
X589403Y343607D01*
X589632Y343632D01*
X589861Y343651D01*
X590090Y343665D01*
X590320Y343673D01*
X590550Y343676D01*
X590550Y337185D02*
X590780Y337188D01*
X591010Y337196D01*
X591239Y337210D01*
X591468Y337229D01*
X591697Y337254D01*
X591925Y337284D01*
X592152Y337319D01*
X592378Y337360D01*
X592603Y337406D01*
X592827Y337458D01*
X593050Y337515D01*
X593271Y337577D01*
X593491Y337645D01*
X593709Y337718D01*
X593925Y337796D01*
X594139Y337879D01*
X594351Y337967D01*
X594562Y338060D01*
X594769Y338159D01*
X594769Y338158D02*
X594859Y338191D01*
X594948Y338227D01*
X595036Y338268D01*
X595121Y338311D01*
X595205Y338358D01*
X595287Y338408D01*
X595367Y338462D01*
X595444Y338518D01*
X595520Y338578D01*
X595593Y338641D01*
X595663Y338706D01*
X595731Y338775D01*
X595795Y338846D01*
X595857Y338919D01*
X595916Y338995D01*
X595972Y339073D01*
X596025Y339154D01*
X596074Y339236D01*
X596120Y339320D01*
X596163Y339407D01*
X596202Y339494D01*
X596238Y339584D01*
X596270Y339674D01*
X596298Y339766D01*
X596323Y339859D01*
X596344Y339953D01*
X596361Y340047D01*
X596375Y340142D01*
X596384Y340238D01*
X596390Y340334D01*
X596392Y340430D01*
X594769Y342702D02*
X594562Y342801D01*
X594351Y342894D01*
X594139Y342982D01*
X593925Y343065D01*
X593709Y343143D01*
X593491Y343216D01*
X593271Y343284D01*
X593050Y343346D01*
X592827Y343403D01*
X592603Y343455D01*
X592378Y343501D01*
X592152Y343542D01*
X591925Y343577D01*
X591697Y343607D01*
X591468Y343632D01*
X591239Y343651D01*
X591010Y343665D01*
X590780Y343673D01*
X590550Y343676D01*
X594769Y342702D02*
X594859Y342669D01*
X594948Y342633D01*
X595036Y342593D01*
X595121Y342549D01*
X595205Y342502D01*
X595287Y342452D01*
X595367Y342398D01*
X595444Y342342D01*
X595520Y342282D01*
X595593Y342219D01*
X595663Y342154D01*
X595731Y342085D01*
X595795Y342014D01*
X595857Y341941D01*
X595916Y341865D01*
X595972Y341787D01*
X596025Y341706D01*
X596074Y341624D01*
X596120Y341540D01*
X596163Y341453D01*
X596202Y341366D01*
X596238Y341276D01*
X596270Y341186D01*
X596298Y341094D01*
X596323Y341001D01*
X596344Y340907D01*
X596361Y340813D01*
X596375Y340718D01*
X596384Y340622D01*
X596390Y340526D01*
X596392Y340430D01*
X593796Y337834D02*
X587304Y343027D01*
M02*
